<?xml version="1.0" encoding="utf-8"?>
<!-- Generator: Adobe Illustrator 22.1.0, SVG Export Plug-In . SVG Version: 6.00 Build 0)  -->
<svg version="1.1" id="Layer_1" xmlns="http://www.w3.org/2000/svg" xmlns:xlink="http://www.w3.org/1999/xlink" x="0px" y="0px"
	 viewBox="0 0 960 320" style="enable-background:new 0 0 960 320;" xml:space="preserve">
<style type="text/css">
	.st0{fill:#FFFFFF;}
	.st1{fill:none;stroke:#000000;stroke-width:2;stroke-linejoin:round;stroke-miterlimit:10;}
	.st2{stroke:#000000;stroke-miterlimit:10;}
	.st3{fill:#FFFFFF;stroke:#000000;stroke-width:2;stroke-linejoin:round;stroke-miterlimit:10;}
	.st4{fill:none;stroke:#000000;stroke-width:2;stroke-linecap:round;stroke-linejoin:round;stroke-miterlimit:10;}
	.st5{fill:none;stroke:#000000;stroke-width:2;stroke-linecap:square;stroke-linejoin:round;stroke-miterlimit:10;}
	.st6{fill:#FFFFFF;stroke:#000000;stroke-width:2;stroke-linecap:round;stroke-linejoin:round;stroke-miterlimit:10;}
</style>
<rect y="-0.1" class="st0" width="960" height="320.1"/>
<path class="st1" d="M502.2,120.4l74.5-74.5c29.1-29.1,76.2-29.1,105.3,0c14.5,14.5,21.8,33.6,21.8,52.7c0,17.2-5.9,34.5-17.8,48.3
	c-0.2,0.3-0.4,0.5-0.7,0.8c0,0-0.1,0.1-0.1,0.1c-1,1.2-2.1,2.3-3.2,3.4l-12.7,12.7l-0.8,0.8"/>
<path class="st1" d="M489.2,133.5l-0.2,0.2l-40,40c0,0,0,0,0,0l-0.2,0.2v0h0"/>
<path class="st2" d="M722.6,185.3c-0.2-0.2-0.6-0.2-0.8,0c0,0-1.1,1.2-2.9,2.7l0,0c-3.3,2.7-9.1,6.5-15.7,6.7
	c-0.3,0-0.5,0.3-0.5,0.6c0,0.1,0.1,0.3,0.2,0.4c0.1,0.1,0.3,0.2,0.4,0.2c4.2-0.2,8.1-1.7,11.2-3.5l0,0c4.8-2.7,7.9-6,8.1-6.3
	C722.8,185.8,722.8,185.5,722.6,185.3z M710,188.1c-0.2,0-1.7,0.2-3.9,0.6c-2.9,0.6-6.7,1.8-9.5,4c-0.2,0.2-0.3,0.5-0.1,0.8l0.1,0.1
	c0.2,0.2,0.5,0.2,0.7,0.1c2.1-1.6,4.9-2.7,7.3-3.3c3-0.8,5.5-1.1,5.5-1.1c0.3,0,0.5-0.3,0.5-0.6C710.6,188.3,710.3,188.1,710,188.1z
	 M722.6,185.3c-0.2-0.2-0.6-0.2-0.8,0c0,0-1.1,1.2-2.9,2.7l0,0c-3.3,2.7-9.1,6.5-15.7,6.7c-0.3,0-0.5,0.3-0.5,0.6
	c0,0.1,0.1,0.3,0.2,0.4c0.1,0.1,0.3,0.2,0.4,0.2c4.2-0.2,8.1-1.7,11.2-3.5l0,0c4.8-2.7,7.9-6,8.1-6.3
	C722.8,185.8,722.8,185.5,722.6,185.3z M710,188.1c-0.2,0-1.7,0.2-3.9,0.6c-2.9,0.6-6.7,1.8-9.5,4c-0.2,0.2-0.3,0.5-0.1,0.8l0.1,0.1
	c0.2,0.2,0.5,0.2,0.7,0.1c2.1-1.6,4.9-2.7,7.3-3.3c3-0.8,5.5-1.1,5.5-1.1c0.3,0,0.5-0.3,0.5-0.6C710.6,188.3,710.3,188.1,710,188.1z
	 M710,188.1c-0.2,0-1.7,0.2-3.9,0.6c-2.9,0.6-6.7,1.8-9.5,4c-0.2,0.2-0.3,0.5-0.1,0.8l0.1,0.1c0.2,0.2,0.5,0.2,0.7,0.1
	c2.1-1.6,4.9-2.7,7.3-3.3c3-0.8,5.5-1.1,5.5-1.1c0.3,0,0.5-0.3,0.5-0.6C710.6,188.3,710.3,188.1,710,188.1z M722.6,185.3
	c-0.2-0.2-0.6-0.2-0.8,0c0,0-1.1,1.2-2.9,2.7l0,0c-3.3,2.7-9.1,6.5-15.7,6.7c-0.3,0-0.5,0.3-0.5,0.6c0,0.1,0.1,0.3,0.2,0.4
	c0.1,0.1,0.3,0.2,0.4,0.2c4.2-0.2,8.1-1.7,11.2-3.5l0,0c4.8-2.7,7.9-6,8.1-6.3C722.8,185.8,722.8,185.5,722.6,185.3z M696.6,192.7
	c-0.2,0.2-0.3,0.5-0.1,0.8l0.1,0.1c0.2,0.2,0.5,0.2,0.7,0.1c2.1-1.6,4.9-2.7,7.3-3.3l1.5-1.5C703.2,189.4,699.4,190.6,696.6,192.7z
	 M740.8,207c-0.2-1.1-1.5-4.4-2.8-7.4c-1-2.5-2.1-4.8-2.6-5.7c-0.3-0.5-0.9-1.4-1.7-2.2c-0.7-0.8-1.4-1.7-2.1-2.4l-2-0.5
	c0.8,0.9,2.1,2.4,3.2,3.7c0.6,0.8,1.2,1.5,1.5,2c0.5,0.8,1.6,3.4,2.7,6c1.2,2.9,2.4,5.8,2.6,6.8c0.3,1.4,0.1,3.7-0.7,4.9
	c-0.3,0.5-0.7,0.7-1.1,0.8c-1.7,0.3-3.4-2.4-4-4.4c-0.4-1.3-0.9-2.8-1.1-3.7c0-0.1,0-0.1-0.1-0.2l0.1-0.1c0.6-1,2-1.9,2.4-2.2
	c0,0,0.1-0.1,0.1-0.1c0.1-0.1,0.2-0.1,0.2-0.2l0,0c0.1-0.2,0.1-0.4,0-0.5c-0.2-0.3-0.5-0.3-0.8-0.2c-0.1,0.1-1.6,1-2.5,2.1
	c-0.5-0.7-1.4-2-1.8-2.8c-0.4-0.9-1-2.3-1.2-2.8c0.7-0.9,2.4-2,3-2.3c0.3-0.1,0.4-0.5,0.2-0.8c-0.1-0.3-0.5-0.4-0.8-0.2
	c-0.1,0-1.2,0.6-2.2,1.5l0,0c-0.4,0.3-0.7,0.6-1,1c-1.3-1.1-5.2-4.4-7.3-6.8l-0.1-0.1c0,0-0.1-0.1-0.1-0.1c0,0-0.1-0.1-0.1-0.1
	c-0.2-0.2-0.6-0.3-0.8-0.1c-0.2,0.2-0.3,0.6-0.1,0.8c0.1,0.1,0.2,0.2,0.2,0.3l5.8,7.8c0.1,0.1,0.2,0.3,0.3,0.4v0
	c0.5,0.8,1.1,2,1.1,2.7c0,0.2,0,0.6,0.1,1.1c0.1,1.4,0.3,4.2,0.2,7c-0.1,3.1-0.5,6.4-1.7,7.9c-1.1,1.5-2.3,2.2-3.3,1.9
	c-0.7-0.2-1.1-0.8-1.2-1.3c-0.1-0.5-0.2-1.2-0.3-2.1c-0.2-2.1,0-4.7,0.5-6.1c1.2-0.7,3.4-1.1,3.4-1.1c0.3-0.1,0.5-0.3,0.4-0.6
	c-0.1-0.3-0.4-0.5-0.7-0.4c-0.1,0-2,0.4-3.4,1c-0.3-1-0.8-2.8-1-4.3c-0.1-0.5-0.1-0.9-0.1-1.3c1.1-0.9,2.3-1.5,3.1-1.7
	c0.4-0.1,0.7-0.2,0.7-0.2c0.3-0.1,0.5-0.3,0.4-0.6c0-0.1,0-0.1-0.1-0.2c-0.1-0.2-0.4-0.3-0.6-0.2c-0.1,0-2.1,0.5-3.9,1.9
	c-2-2.4-5.5-7-5.5-7.1c-0.2-0.2-0.5-0.3-0.8-0.1c-0.2,0.2-0.3,0.5-0.1,0.8c0,0,1.3,1.7,2.7,3.5c0.7,1.4,1.3,3.1,1.3,3.7v0.1
	c0,0.5-0.2,2.9-0.4,4.7c-0.1,1.1-0.2,2.1-0.2,2.3c-0.1,0.3-0.7,1.8-2.2,2.5l-0.2,0.1c-1,0.4-2.3,1-3.4,1.2h0c-0.9,0.2-1.7,0.1-2-0.5
	c-0.4-0.7-0.5-1.7-0.2-2.8c0.3-1.1,0.8-1.9,1.1-2.1c0.4-0.2,0.6-0.4,0.9-0.6c0.9-0.3,2.5-0.1,3,0.1c0.3,0.1,0.6-0.1,0.7-0.4
	c0.1-0.3-0.1-0.6-0.4-0.7c-0.1,0-1.4-0.3-2.6-0.2c-0.2-0.8-0.4-2.1-0.2-2.5l0.2-0.4c1.1-0.6,2.6-0.2,2.6-0.2
	c0.3,0.1,0.6-0.1,0.7-0.4c0.1-0.3-0.1-0.6-0.4-0.7c-0.1,0-2.2-0.5-3.8,0.6c-0.3-0.4-0.7-1-1.1-1.5c-0.6-0.9-1.3-1.9-1.9-2.6
	c-0.4-0.5-0.8-0.9-1.2-1.1c-0.4-0.3-0.8-0.1-1,0c-0.7,0.4-0.8,1.8-0.9,4.1v0c0,1.3-0.1,2.8-0.4,3.5c-0.4,1-1.1,2.3-2.3,2.8
	c-0.7,0.3-1.5,0.2-2.4-0.2c-0.2-0.1-0.5-0.2-0.7-0.3c-1.2-0.7-1.4-1.4-1.4-2.2c0-0.3,0-0.6,0.1-1l0-0.2c0.1-0.8,0.8-1.6,1.2-1.9
	c1.2-0.7,3-0.1,3-0.1c0.3,0.1,0.6-0.1,0.7-0.3c0.1-0.3,0-0.6-0.3-0.7c-0.1,0-1.9-0.7-3.4-0.1c-0.3-0.9-0.9-2.5-1.5-3.3l-0.1-0.2
	l-0.2-0.3c-0.9-1.2-2.2-3-3.9-4.5c-0.5-0.5-1-0.9-1.6-1.3c-1.4-1.1-2.8-2.2-4.4-4.4c-1.4-1.9-3.4-6-4.7-8.8c-0.9-1.8-1.3-2.7-1.5-3
	c-0.1-0.1-5.2-5.4-11.4-11.6l-0.8,0.8c3,3,5.4,5.5,6.6,6.7v0c2.8,2.8,4.6,4.6,4.7,4.7c0.2,0.2,0.8,1.5,1.4,2.8c1.4,2.9,3.3,7,4.8,9
	c1.7,2.2,3.2,3.4,4.6,4.6c0.5,0.4,1,0.8,1.5,1.3c1.6,1.4,2.9,3.2,3.8,4.3l0.3,0.4l0.1,0.1c0.6,0.8,1.2,2.6,1.5,3.3
	c-0.4,0.5-1.2,1.4-1.3,2.4l0,0.2c-0.1,1-0.3,2.3,0.9,3.5c0.2,0.2,0.4,0.4,0.8,0.6c0.3,0.2,0.6,0.4,1,0.6c1.2,0.5,2.3,0.6,3.3,0.2
	c1.5-0.6,2.4-2.2,2.9-3.4c0.3-0.9,0.4-2.4,0.4-3.9c0-0.3,0-0.7,0-1.1c0-0.8,0.1-1.6,0.2-1.9c0.2,0.2,0.5,0.5,0.9,0.8
	c0.6,0.7,1.2,1.7,1.8,2.4c0.7,1,1.2,1.6,1.5,2c-0.2,0.9,0.1,2.2,0.2,2.7c-0.1,0.1-0.3,0.4-0.9,0.7c-0.7,0.4-1.3,1.5-1.7,2.8
	c-0.3,1.4-0.2,2.7,0.4,3.7c0.4,0.7,1.1,1,1.8,1.1h0c1.6,0.2,3.5-0.7,5-1.3l0.2-0.1c2.2-0.9,2.9-3.1,2.9-3.2l0-0.1
	c0,0,0.1-1.9,0.3-3.7v0c0.1-1.5,0.2-3,0.3-3.4c0-0.2,0-0.5-0.1-0.9c0.2,0.3,0.5,0.6,0.7,0.8c-0.1,0.7,0,1.6,0.2,2.4
	c0.2,1.4,0.7,2.7,0.9,3.7c0.1,0.2,0.1,0.3,0.1,0.5c-0.5,2.1-0.9,4.7-0.5,7.5c0.1,0.4,0.1,0.8,0.2,1.2c0.1,0.6,0.4,1.1,0.8,1.5
	c0.3,0.3,0.8,0.6,1.2,0.7c0.8,0.2,2.5,0.2,4.5-2.3c1.5-2,1.9-6.1,1.9-9.7c0-2.4-0.1-4.6-0.2-6c-0.1-0.5-0.1-0.9-0.1-1
	c0-1.1-1-2.8-1.4-3.5c-0.1-0.1-0.1-0.2-0.2-0.3l-1.7-2.4c1,0.9,1.9,1.7,2.4,2.1c0.2,0.1,0.3,0.3,0.4,0.3c0.2,0.4,0.9,2,1.3,3
	c0.5,1.1,1.9,3,2.2,3.4c0.1,0.2,0.2,0.6,0.4,1.2v0c0.3,0.9,0.6,2.1,1,3.2c0.4,1.3,1.2,2.9,2.3,3.9c0.8,0.9,1.9,1.4,3,1.2
	c0.7-0.1,1.3-0.6,1.8-1.3C740.9,211.2,741.1,208.6,740.8,207z M722.6,185.3c-0.2-0.2-0.6-0.2-0.8,0c0,0-1.1,1.2-2.9,2.7l0,0
	c-3.3,2.7-9.1,6.5-15.7,6.7c-0.3,0-0.5,0.3-0.5,0.6c0,0.1,0.1,0.3,0.2,0.4c0.1,0.1,0.3,0.2,0.4,0.2c4.2-0.2,8.1-1.7,11.2-3.5l0,0
	c4.8-2.7,7.9-6,8.1-6.3C722.8,185.8,722.8,185.5,722.6,185.3z M710,188.1c-0.2,0-1.7,0.2-3.9,0.6c-2.9,0.6-6.7,1.8-9.5,4
	c-0.2,0.2-0.3,0.5-0.1,0.8l0.1,0.1c0.2,0.2,0.5,0.2,0.7,0.1c2.1-1.6,4.9-2.7,7.3-3.3c3-0.8,5.5-1.1,5.5-1.1c0.3,0,0.5-0.3,0.5-0.6
	C710.6,188.3,710.3,188.1,710,188.1z"/>
<g>
	<path class="st3" d="M669.5,242.6c-0.4,0.4,0,1.6,1,2.6c1,1,2.2,1.5,2.6,1"/>
	<path class="st3" d="M665.8,238.9c-0.4,0.4,0,1.6,1,2.6c1,1,2.2,1.5,2.6,1"/>
	<g>
		
			<ellipse transform="matrix(0.7071 -0.7071 0.7071 0.7071 106.4544 576.239)" class="st3" cx="748.8" cy="159.6" rx="1.1" ry="2.6"/>
		
			<ellipse transform="matrix(0.7071 -0.7071 0.7071 0.7071 104.9452 579.8826)" class="st3" cx="752.5" cy="163.3" rx="1.1" ry="2.6"/>
		<path class="st3" d="M745.3,176.1c-1.1,1.1-4.1,0-6.7-2.6c-1.5-1.5-2.5-3.1-2.9-4.4c-0.3-1-0.2-1.8,0.3-2.3
			c0.5-0.5,1.3-0.5,2.3-0.3l7.3,7.3C745.8,174.8,745.7,175.6,745.3,176.1z"/>
		<path class="st3" d="M745.3,176.1l-59.4,59.4c-0.5,0.5-1.3,0.5-2.3,0.3c-1.3-0.4-2.9-1.4-4.4-2.9c-2.6-2.6-3.7-5.6-2.6-6.7
			l59.4-59.4c-0.5,0.5-0.5,1.3-0.3,2.3c0.4,1.3,1.4,2.9,2.9,4.4C741.1,176.1,744.1,177.3,745.3,176.1z"/>
		<polyline class="st1" points="747,157.8 738.2,166.6 735.7,169.1 		"/>
		<line class="st1" x1="750.6" y1="161.4" x2="738.5" y2="173.5"/>
		<line class="st1" x1="754.3" y1="165.1" x2="743.2" y2="176.2"/>
		<polyline class="st1" points="683.6,235.8 681.9,237.5 673.1,246.2 		"/>
		<line class="st1" x1="669.5" y1="242.6" x2="679.2" y2="232.9"/>
		<line class="st1" x1="665.8" y1="238.9" x2="676.3" y2="228.5"/>
		<line class="st1" x1="676.6" y1="226.2" x2="676.2" y2="226.6"/>
		<line class="st1" x1="685.9" y1="235.5" x2="685.5" y2="235.9"/>
	</g>
</g>
<path class="st2" d="M806.6,109.3c-0.3,0-0.6,0.2-0.6,0.5c0,0-0.2,1.5-0.6,3.6c-0.6,2.8-1.7,6.5-3.8,9.2c-0.2,0.2-0.1,0.5,0.1,0.7
	l0.1,0.1c0.2,0.2,0.6,0.1,0.8-0.1c2.7-3.5,3.8-8.5,4.3-11.3c0.2-1.2,0.3-2,0.3-2.1C807.2,109.6,807,109.3,806.6,109.3z M809.2,97.3
	c-0.4,0.3-9.3,8.8-9.8,19.4c0,0.2,0.1,0.3,0.2,0.4c0.1,0.1,0.2,0.2,0.4,0.2c0.3,0,0.6-0.2,0.6-0.5c0.4-10.1,9.3-18.5,9.4-18.6
	c0.2-0.2,0.2-0.6,0-0.8C809.8,97.1,809.4,97.1,809.2,97.3z M809.2,97.3c-0.4,0.3-9.3,8.8-9.8,19.4c0,0.2,0.1,0.3,0.2,0.4
	c0.1,0.1,0.2,0.2,0.4,0.2c0.3,0,0.6-0.2,0.6-0.5c0.4-10.1,9.3-18.5,9.4-18.6c0.2-0.2,0.2-0.6,0-0.8
	C809.8,97.1,809.4,97.1,809.2,97.3z M806.6,109.3c-0.3,0-0.6,0.2-0.6,0.5c0,0-0.2,1.5-0.6,3.6c-0.6,2.8-1.7,6.5-3.8,9.2
	c-0.2,0.2-0.1,0.5,0.1,0.7l0.1,0.1c0.2,0.2,0.6,0.1,0.8-0.1c2.7-3.5,3.8-8.5,4.3-11.3c0.2-1.2,0.3-2,0.3-2.1
	C807.2,109.6,807,109.3,806.6,109.3z M806.6,109.3c-0.3,0-0.6,0.2-0.6,0.5c0,0-0.2,1.5-0.6,3.6c-0.6,2.8-1.7,6.5-3.8,9.2
	c-0.2,0.2-0.1,0.5,0.1,0.7l0.1,0.1c0.2,0.2,0.6,0.1,0.8-0.1c2.7-3.5,3.8-8.5,4.3-11.3c0.2-1.2,0.3-2,0.3-2.1
	C807.2,109.6,807,109.3,806.6,109.3z M809.2,97.3c-0.4,0.3-9.3,8.8-9.8,19.4c0,0.2,0.1,0.3,0.2,0.4c0.1,0.1,0.2,0.2,0.4,0.2
	c0.3,0,0.6-0.2,0.6-0.5c0.4-10.1,9.3-18.5,9.4-18.6c0.2-0.2,0.2-0.6,0-0.8C809.8,97.1,809.4,97.1,809.2,97.3z M806.6,109.3
	c-0.3,0-0.6,0.2-0.6,0.5c0,0-0.2,1.5-0.6,3.6c-0.6,2.8-1.7,6.5-3.8,9.2c-0.2,0.2-0.1,0.5,0.1,0.7l0.1,0.1c0.2,0.2,0.6,0.1,0.8-0.1
	c2.7-3.5,3.8-8.5,4.3-11.3c0.2-1.2,0.3-2,0.3-2.1C807.2,109.6,807,109.3,806.6,109.3z M809.2,97.3c-0.4,0.3-9.3,8.8-9.8,19.4
	c0,0.2,0.1,0.3,0.2,0.4c0.1,0.1,0.2,0.2,0.4,0.2c0.3,0,0.6-0.2,0.6-0.5c0.4-10.1,9.3-18.5,9.4-18.6c0.2-0.2,0.2-0.6,0-0.8
	C809.8,97.1,809.4,97.1,809.2,97.3z M806.6,109.3c-0.3,0-0.6,0.2-0.6,0.5c0,0-0.2,1.5-0.6,3.6l1.4-1.4c0.2-1.2,0.3-2,0.3-2.1
	C807.2,109.6,807,109.3,806.6,109.3z M809.2,97.3c-0.4,0.3-9.3,8.8-9.8,19.4c0,0.2,0.1,0.3,0.2,0.4c0.1,0.1,0.2,0.2,0.4,0.2
	c0.3,0,0.6-0.2,0.6-0.5c0.4-10.1,9.3-18.5,9.4-18.6c0.2-0.2,0.2-0.6,0-0.8C809.8,97.1,809.4,97.1,809.2,97.3z M806.6,109.3
	c-0.3,0-0.6,0.2-0.6,0.5c0,0-0.2,1.5-0.6,3.6l1.4-1.4c0.2-1.2,0.3-2,0.3-2.1C807.2,109.6,807,109.3,806.6,109.3z M809.2,97.3
	c-0.4,0.3-9.3,8.8-9.8,19.4c0,0.2,0.1,0.3,0.2,0.4c0.1,0.1,0.2,0.2,0.4,0.2c0.3,0,0.6-0.2,0.6-0.5c0.4-10.1,9.3-18.5,9.4-18.6
	c0.2-0.2,0.2-0.6,0-0.8C809.8,97.1,809.4,97.1,809.2,97.3z M782.5,80c-0.7,0.5-1.2,1.1-1.3,1.8c-0.2,1.1,0.3,2.1,1.2,3
	c1.1,1.1,2.6,1.9,3.9,2.3c0.7,0.2,1.4,0.4,2.1,0.7c1.1,0.3,2,0.6,2.3,0.7c0.4,0.3,2.3,1.7,3.4,2.1c1,0.4,2.6,1.1,3,1.3
	c0.3,0.4,1.2,1.5,2.4,2.9l-2.4-1.7c-0.3-0.2-2.4-1.6-3.8-1.6c-0.2,0-0.5,0-1-0.1c-1.6-0.1-4.5-0.3-7.4-0.2c-3.2,0.1-6.5,0.6-8.3,1.9
	c-2.5,1.9-2.5,3.6-2.3,4.5c0.1,0.5,0.4,0.9,0.7,1.3c0.4,0.4,0.9,0.6,1.5,0.8c0,0,0,0,0,0c3.2,0.7,6.3,0.4,8.7-0.3
	c0.1,0,0.3,0.1,0.5,0.1c1.5,0.4,4.2,1.2,6.1,1.1c0.2,0.2,0.5,0.4,0.8,0.7c-0.3-0.1-0.7-0.1-0.9-0.1c-0.9,0.1-7,0.6-7.1,0.6l-0.1,0
	c-0.1,0-2.3,0.7-3.2,2.9l-0.1,0.2c-0.9,2.2-2.4,5.5-0.2,6.8c0.9,0.6,2.3,0.7,3.7,0.4c1.3-0.3,2.3-0.9,2.8-1.6
	c0.3-0.6,0.6-0.8,0.7-0.9c0.5,0.1,1.8,0.4,2.7,0.2c0.4,0.4,1,0.8,2,1.5c1.2,0.8,2.8,1.9,3.3,2.6c-0.5,0.2-2,0.3-3.1,0.3
	c-1.5,0-3,0.1-3.9,0.4c-1.2,0.5-2.8,1.4-3.4,2.9c-0.4,1-0.3,2.1,0.2,3.3c0.4,0.8,0.7,1.4,1.2,1.8c1.2,1.2,2.5,1,3.5,0.9l0.2,0
	c1-0.1,1.9-0.9,2.4-1.3c0.5,0.2,1.6,0.5,2.5,1c0.3,0.2,0.6,0.3,0.8,0.5l0.5,0.4c1.2,0.8,2.9,2.1,4.3,3.8c0.5,0.5,0.9,1,1.3,1.5
	c1.1,1.5,2.3,3,4.6,4.7c2,1.5,6,3.4,9,4.8c1.3,0.6,2.6,1.2,2.8,1.4c0.3,0.2,11.4,11.4,19,18.9l9.9,9.9v-0.1l0.9-0.6l-10.5-10.5
	c-0.1-0.1-0.2-0.2-0.3-0.3c-7.5-7.5-18-18-18.4-18.3c-0.3-0.2-1.2-0.7-3-1.5c-2.7-1.3-6.9-3.3-8.8-4.7c-2.1-1.6-3.3-3.1-4.4-4.4
	c-0.4-0.5-0.8-1.1-1.3-1.6c-1.5-1.7-3.3-3.1-4.5-3.9l-0.5-0.4c-0.2-0.1-0.4-0.3-0.7-0.4c-0.9-0.5-2-0.9-2.7-1.1
	c0.6-1.5,0-3.3-0.1-3.4c-0.1-0.3-0.4-0.4-0.7-0.3c-0.3,0.1-0.5,0.4-0.3,0.7c0,0,0.6,1.9-0.1,3c-0.3,0.3-1.1,1.1-1.9,1.1l-0.2,0
	c-1.3,0.2-2.5,0.3-3.5-2c-0.4-0.9-0.5-1.7-0.2-2.4c0.5-1.1,1.8-1.9,2.8-2.3c0.7-0.3,2.2-0.3,3.5-0.3c2.3-0.1,3.7-0.1,4.1-0.9
	c0.1-0.2,0.2-0.5,0-1c-0.5-0.9-2.2-2.1-3.7-3.1c-0.5-0.4-1.1-0.8-1.5-1.1c1.1-1.6,0.6-3.7,0.6-3.8c-0.1-0.3-0.4-0.5-0.7-0.4
	c-0.3,0.1-0.5,0.4-0.4,0.7c0,0,0.4,1.5-0.2,2.6l-0.4,0.2c-0.5,0.2-1.7,0-2.5-0.2c0.1-1.2-0.2-2.6-0.2-2.6c-0.1-0.3-0.4-0.5-0.7-0.4
	c-0.3,0.1-0.5,0.4-0.4,0.7c0.1,0.5,0.4,2.1,0.1,3c-0.2,0.2-0.4,0.5-0.6,0.9c-0.2,0.4-0.9,0.9-2.1,1.1c-1.1,0.3-2.1,0.2-2.8-0.2
	c-1.3-0.8-0.1-3.7,0.7-5.5l0.1-0.2c0.7-1.5,2.2-2.1,2.5-2.2c0.7-0.1,6.2-0.5,7.1-0.6h0.1c0.6,0,2.3,0.7,3.7,1.3
	c1.8,1.4,3.5,2.7,3.5,2.7c0.2,0.2,0.6,0.1,0.8-0.1c0.2-0.3,0.1-0.6-0.1-0.8c-0.1,0-4.6-3.5-7.1-5.5c1.4-1.8,1.9-3.9,1.9-3.9
	c0.1-0.3-0.1-0.6-0.4-0.7c-0.3-0.1-0.6,0.1-0.6,0.4c0,0-0.5,2.1-1.9,3.8c-1.6,0.1-4.2-0.7-5.5-1.1c0.7-1.4,1-3.3,1.1-3.4
	c0.1-0.3-0.1-0.6-0.4-0.7c-0.3-0.1-0.6,0.1-0.7,0.4c0,0-0.5,2.2-1.1,3.4c-1.7,0.7-5.3,0.7-7.4,0.4c-0.3,0-0.5-0.1-0.8-0.2
	c-0.5-0.1-1.1-0.5-1.3-1.2c-0.3-1,0.4-2.2,1.9-3.3c1.3-1,3.8-1.4,6.4-1.6c3.3-0.2,6.9,0,8.5,0.2c0.6,0,1,0.1,1.1,0.1
	c0.8,0,2.3,0.8,3.1,1.4l7.8,5.8c0.1,0.1,0.2,0.2,0.3,0.2c0.2,0.2,0.6,0.2,0.8-0.1c0.2-0.2,0.2-0.6-0.1-0.8c0,0-0.1-0.1-0.1-0.1
	c0,0,0-0.1-0.1-0.1l-0.1-0.1c-2.4-2.1-5.7-6-6.8-7.3c1.3-1.1,2.4-3.2,2.5-3.3c0,0,0-0.1,0-0.1c0.1-0.3,0-0.5-0.2-0.7
	c-0.3-0.1-0.6,0-0.8,0.2c-0.3,0.6-1.4,2.3-2.3,3c-0.6-0.3-2-0.8-2.9-1.2c-0.8-0.3-2.2-1.3-2.8-1.8c1.1-0.9,2.1-2.4,2.1-2.5
	c0.2-0.3,0.1-0.6-0.2-0.8c-0.3-0.1-0.6-0.1-0.8,0.2c0,0-1.1,1.8-2.2,2.5l-0.1,0.1c-0.3-0.1-0.8-0.2-1.3-0.4
	c-0.8-0.2-1.8-0.5-2.6-0.8c-1.9-0.6-4.7-2.3-4.4-4c0.1-0.4,0.4-0.8,0.8-1.1c1.2-0.8,3.5-1,4.9-0.7c0.8,0.2,3.2,1.1,5.7,2.1
	c2.3,0.9,4.6,2,6,2.6c0.4,0.2,0.7,0.4,1,0.5c1.3,0.7,4.3,3.4,5.7,4.7l-0.5-1.9c-1.5-1.4-3.5-3.1-4.6-3.7c-0.3-0.2-0.9-0.5-1.7-0.8
	c-1.3-0.6-3.2-1.4-5.1-2.2c-2.7-1.1-5.4-2.2-6.4-2.4C786.7,78.8,784,79,782.5,80z M809.2,97.3c-0.4,0.3-9.3,8.8-9.8,19.4
	c0,0.2,0.1,0.3,0.2,0.4c0.1,0.1,0.2,0.2,0.4,0.2c0.3,0,0.6-0.2,0.6-0.5c0.4-10.1,9.3-18.5,9.4-18.6c0.2-0.2,0.2-0.6,0-0.8
	C809.8,97.1,809.4,97.1,809.2,97.3z M806.6,109.3c-0.3,0-0.6,0.2-0.6,0.5c0,0-0.2,1.5-0.6,3.6l1.4-1.4c0.2-1.2,0.3-2,0.3-2.1
	C807.2,109.6,807,109.3,806.6,109.3z"/>
<path class="st1" d="M845.4,88c-13.8,13.8-35.1-7.6-21.4-21.4"/>
<path class="st1" d="M849,82.7c-1.4,14.5-4.9,28.7-10.2,42.2c-0.2,0.4-0.3,0.8-0.5,1.2"/>
<path class="st1" d="M827.7,147.1c-0.2,0.3-0.4,0.7-0.6,1c-9.1,14.5-20.6,27-32.8,39.2c-32,32-18.1,18.1-33.7,33.7l-33,33
	c-12.8,12.4-34.6,5.4-37.1-11.7"/>
<path class="st1" d="M853.9,79.4L822.4,111l-4.5,4.5l-0.9,0.9l-3.4,3.4l-1.2,1.2l-6.2,6.2l-79.5,79.5l-1.5,1.5l-7.5,7.5l-0.8,0.8
	l-12.1,12.1l-14.2,14.2l-7.8,7.8l-4,4c-5.9,5.9-15.5,5.9-21.4,0c-5.9-5.9-5.9-15.5,0-21.4l26-26l14.6-14.6l1-1l6.4-6.4l1.1-1.1l4-4
	l2.4-2.4l2.9-2.9l65.9-65.9l9.7-9.7l1.4-1.4l6.4-6.4l2.3-2.3l6.3-6.3l3.5-3.5l0.1-0.1L824,66.6l8.6-8.6c-5.9,5.9-5.9,15.5,0,21.4
	C838.5,85.3,848,85.3,853.9,79.4z"/>
<path class="st1" d="M704.7,228.6c-5.9,5.9-15.5,5.9-21.4,0c-5.9-5.9-5.9-15.5,0-21.4"/>
<ellipse transform="matrix(0.2298 -0.9732 0.9732 0.2298 582.6271 873.6235)" class="st1" cx="843.2" cy="68.7" rx="15.1" ry="15.1"/>
<path class="st1" d="M686.6,247.4c-5.9,5.9-15.5,5.9-21.4,0c-5.9-5.9-5.9-15.5,0-21.4"/>
<path class="st0" d="M808.4,81.2c-0.2,0.1-0.5,0.4-0.7,0.6c-0.1,0.1-0.1,0.1-0.2,0.2c-0.1,0.1-0.2,0.2-0.2,0.4
	c-0.1,0.2-0.2,0.4-0.3,0.6c0,0.1,0,0.1-0.1,0.2c0,0,0,0.1,0,0.1c0,0,0,0.1,0,0.1c0,0.1,0,0.1-0.1,0.2c0,0,0,0.1,0,0.1
	c0,0.1,0,0.2,0,0.3c0,0.1,0,0.2,0,0.3c0,0.1,0,0.3,0,0.4c0,0.2,0,0.4,0.1,0.7c0,0,0,0,0,0c0,0.1,0,0.2,0,0.3c0,0.1,0,0.2,0.1,0.4
	c0,0.1,0,0.2,0.1,0.3c0.1,0.4,0.2,0.9,0.3,1.3c0.1,0.3,0.2,0.6,0.3,0.9c0,0.1,0,0.1,0.1,0.2c0,0.1,0.1,0.2,0.1,0.3c0,0,0,0.1,0,0.1
	c0,0.1,0.1,0.2,0.1,0.4c0.1,0.2,0.1,0.4,0.2,0.6c0.1,0.2,0.1,0.3,0.2,0.5c0,0.1,0.1,0.2,0.1,0.3c0,0.1,0.1,0.2,0.1,0.3
	c0.1,0.1,0.1,0.3,0.2,0.4c0.4,0.9,0.8,1.9,1.3,2.8c0,0.1,0.1,0.2,0.1,0.2l0.2,0.4c0.4,0.8,0.8,1.6,1.3,2.4c0.2,0.3,0.3,0.6,0.5,0.9
	c0.1,0.2,0.3,0.4,0.4,0.6c0.4,0.6,0.7,1.2,1.1,1.7c0.1,0.1,0.2,0.3,0.3,0.4c0.2,0.3,0.4,0.6,0.7,0.9c0.3,0.4,0.6,0.7,0.9,1.1
	l0.1,0.1l0.2,0.2l-0.3,0.4c-0.1,0.1-0.2,0.2-0.3,0.4c-0.2,0.3-0.4,0.6-0.6,1c0,0.1-0.1,0.2-0.1,0.3c-0.1,0.2-0.2,0.4-0.2,0.5
	c-0.1,0.1-0.1,0.3-0.2,0.4c-0.1,0.2-0.1,0.4-0.2,0.6c-0.1,0.1-0.1,0.3-0.1,0.5c-0.3,0.8-0.5,1.7-0.7,2.6c-0.3,1.8-0.5,3.8-0.4,5.9
	c0,0.1,0,0.2,0,0.3c0,0.2,0,0.4,0,0.6c0,0.1,0,0.2,0,0.2c0,0.3,0.1,0.5,0.1,0.8c0,0.1,0,0.3,0.1,0.4c0.1,0.3,0.1,0.6,0.2,0.9
	c0.1,0.3,0.1,0.6,0.2,0.9c0.1,0.3,0.2,0.6,0.3,0.9c0.1,0.3,0.2,0.6,0.3,0.9c0.1,0.2,0,0.3-0.1,0.5c0,0,0,0.1-0.1,0.1c0,0,0,0,0,0
	c0,0,0,0,0,0c-0.1,0-0.1,0.1-0.2,0.1c0,0,0,0,0,0c0,0,0,0,0,0c0,0-0.1,0-0.1,0c-0.1,0-0.1,0-0.2,0c0,0,0,0,0,0c-0.1,0-0.1,0-0.2-0.1
	c0,0-0.1,0-0.1-0.1c0,0-0.1-0.1-0.1-0.1c0,0,0,0,0-0.1c0,0,0,0,0-0.1c0-0.1-0.1-0.1-0.1-0.2l2.4,12.3l8,6.3l4,3.1l4.7,3.7l6.2,4.8
	l0.4,0.4l8.6,7.8l0.9,0.8l0.6,0.6l0,0l0,0l12.5-12.5l1.5-1.5c-0.3-0.3-1.6-1.5-3.5-3.2c-0.2-0.2-0.4-0.4-0.7-0.6
	c-0.6-0.5-1.3-1.1-2-1.8c-1.7-1.5-3.5-3.1-5.4-4.8c-0.9-0.8-1.8-1.6-2.7-2.4c-1.6-1.4-3.1-2.8-4.6-4.2c-0.1-0.1-0.2-0.2-0.4-0.3
	c-1-0.9-1.9-1.7-2.7-2.5c0,0,0,0,0,0c-0.2-0.2-0.5-0.4-0.7-0.6c-0.4-0.4-0.9-0.8-1.3-1.2c-0.2-0.2-0.4-0.4-0.7-0.6
	c-0.4-0.4-0.9-0.8-1.2-1.1c-0.3-0.3-0.6-0.5-0.8-0.8c-0.1-0.1-0.2-0.2-0.4-0.4c-0.1-0.1-0.2-0.2-0.3-0.3c-0.1-0.1-0.2-0.2-0.3-0.4
	c-0.1-0.1-0.2-0.2-0.3-0.3c-0.1-0.1-0.2-0.2-0.2-0.2c-0.1-0.1-0.1-0.1-0.1-0.2c0,0.1-0.1,0.2-0.1,0.4c0,0,0,0,0,0
	c0,0.1-0.1,0.3-0.1,0.4c-0.1,0.6-0.3,1.2-0.6,1.9c-0.1,0.3-0.3,0.7-0.5,1.1c-0.1,0.3-0.3,0.6-0.5,0.9c0,0.1-0.1,0.2-0.1,0.2
	c-0.1,0.1-0.1,0.2-0.2,0.3c-0.2,0.3-0.4,0.5-0.6,0.8c-0.2,0.3-0.4,0.5-0.7,0.8c-0.1,0.1-0.2,0.2-0.2,0.3c-0.3,0.3-0.7,0.7-1.1,1
	c0,0-0.1,0-0.1,0.1c-0.2,0.1-0.5,0.1-0.7-0.1c0,0,0,0,0-0.1c0,0-0.1-0.1-0.1-0.1c0,0,0,0,0,0c0,0,0-0.1,0-0.1c0,0,0,0,0,0
	c0,0,0-0.1,0-0.1c0,0,0,0,0,0c0,0,0-0.1,0.1-0.1c0-0.1,0.1-0.1,0.1-0.1c0.2-0.2,0.5-0.4,0.7-0.6l0.1-0.1c1-0.9,1.7-1.9,2.2-2.9
	c0-0.1,0.1-0.1,0.1-0.2c0.1-0.2,0.2-0.3,0.3-0.5c0.1-0.2,0.2-0.3,0.2-0.5c0.3-0.7,0.5-1.3,0.6-1.9c0,0,0-0.1,0-0.1
	c0-0.1,0.1-0.2,0.1-0.3c0-0.1,0-0.1,0-0.2c0-0.1,0-0.1,0-0.2c0-0.2,0.1-0.4,0.1-0.5c0-0.1,0-0.1,0-0.1c0-0.1,0-0.1,0-0.2
	c0,0,0,0,0-0.1c0,0,0,0,0-0.1c0-0.1,0-0.1,0-0.1c0,0,0-0.1,0-0.1v0c-0.7-1.2-1.5-3-2.4-5c-0.1-0.1-0.1-0.2-0.2-0.4
	c-0.1-0.2-0.2-0.5-0.3-0.7c-0.8-1.9-1.6-3.8-2.3-5.6c0-0.1-0.1-0.2-0.1-0.3c-0.2-0.4-0.3-0.8-0.5-1.2c-0.1-0.2-0.1-0.4-0.2-0.5
	c-0.1-0.2-0.1-0.3-0.2-0.5c-0.2-0.4-0.3-0.8-0.4-1.1c0-0.1-0.1-0.3-0.1-0.4c-0.2-0.5-0.3-0.8-0.3-1.1c0,0,0-0.1,0-0.1
	c0,0,0-0.1,0-0.1c-0.1-0.2-0.1-0.3-0.2-0.5c-0.1-0.1-0.1-0.2-0.2-0.4c0-0.1-0.1-0.1-0.2-0.2c-0.1-0.1-0.2-0.2-0.3-0.3
	c-0.7-0.8-1.7-1.8-2.7-2.8c-0.1-0.1-0.3-0.3-0.4-0.4c-0.3-0.3-0.5-0.5-0.8-0.8h0c-0.1-0.1-0.2-0.2-0.3-0.3c0,0-0.1-0.1-0.1-0.1
	c-0.1-0.1-0.3-0.3-0.4-0.4c-0.1-0.1-0.1-0.2-0.2-0.2c-0.1-0.1-0.1-0.2-0.2-0.2h0c0,0,0,0,0,0c0,0,0,0,0,0c0,0,0,0,0,0
	c-0.2-0.2-0.3-0.4-0.5-0.6c-0.8-1-1.6-2.1-2.3-3.2c0,0,0,0,0,0c-0.3-0.4-0.6-0.8-0.9-1.3c-0.4-0.6-0.8-1.1-1.1-1.6c0,0,0,0,0,0l0,0
	c-0.3-0.5-0.6-0.8-0.8-1.1c-0.3-0.4-0.6-0.7-0.8-1.1c-0.2-0.3-0.4-0.6-0.6-1c-0.3-0.4-0.5-0.9-0.7-1.2c-0.1-0.1-0.1-0.3-0.2-0.4
	c0-0.1-0.1-0.1-0.1-0.2c0-0.1-0.1-0.1-0.1-0.2l-0.2-0.4c0,0,0-0.1-0.1-0.1c0-0.1-0.1-0.2-0.1-0.3c-0.1-0.3-0.1-0.6-0.2-0.9
	c-0.1-0.4-0.2-1-0.3-1.4c-0.1-0.4-0.3-0.9-0.5-1.1c0,0-0.1-0.1-0.1-0.1c-0.1-0.1-0.2-0.1-0.2-0.2C810,80.4,809.2,80.6,808.4,81.2z"
	/>
<path class="st2" d="M865.6,151.3c-3.4-3.1-30.9-28.6-31.3-29.2c-0.4,1.9-1.5,5.5-4.7,8c-0.2,0.2-0.5,0.1-0.7,0c0,0,0,0,0-0.1
	c-0.2-0.2-0.2-0.6,0.1-0.8c4-3.1,4.5-8.4,4.5-8.5c0,0,0-0.1,0-0.1c-2.3-4.2-6.9-15.4-7.1-16.8c-0.2-1.2-2.7-3.5-4.8-5.6
	c-1.6-1.5-3.5-4.2-4.9-6.4c-0.8-1.1-1.5-2.1-1.9-2.7c-1.2-1.4-2-3.1-2.5-4.1l-0.2-0.4c-0.1-0.3-0.2-0.8-0.3-1.3
	c-0.2-1-0.4-2.6-1.2-2.8c-0.5-0.2-1.3,0-2.1,0.6c-0.6,0.4-1.6,1.5-1.6,3.5c0.1,3.5,3.8,13,8.7,18.6l0.3,0.4l-0.3,0.4
	c-1.4,1.5-4.6,10-1.6,18c0.1,0.3,0,0.6-0.3,0.7c-0.2,0.1-0.4,0-0.6-0.1c-0.1-0.1-0.1-0.1-0.1-0.2c-3-8-0.1-16.4,1.5-18.7
	c-3-3.6-5.6-8.6-7.1-12.7l-0.7-2.2c-0.5-1.6-0.8-3.1-0.8-4c0-1.8,0.7-3.4,2.1-4.4c1-0.8,2.2-1,3.1-0.7c1.4,0.5,1.7,2.3,1.9,3.7
	c0.1,0.4,0.1,0.9,0.2,1l0.2,0.4c0.4,0.9,1.2,2.5,2.3,3.8c0.5,0.6,1.2,1.6,2,2.7c1.5,2.1,3.3,4.8,4.8,6.3c2.5,2.4,4.8,4.6,5.2,6.2
	c0.3,1.3,5.6,14.3,7.5,17.3c0.4,0.6,29.1,26.8,32.4,29.8"/>
<path class="st0" d="M695.1,158.3c-0.9-1-2-2.2-3.2-3.5c-1.3-1.4-3.7-4-6.5-7.1c0,0-0.1,0.1-0.1,0.1c2.8,3.1,5.3,5.7,6.5,7.1v0
	C693,156.1,694.1,157.3,695.1,158.3z M739.3,184.8c-0.2-0.7-1.8-1-2.8-1.2c-0.6-0.1-1-0.2-1.3-0.3l-0.4-0.2
	c-0.9-0.5-2.7-1.3-4.1-2.5c-0.5-0.4-1.5-1.1-2.7-1.9h0c-2.2-1.5-4.9-3.3-6.4-4.9c-0.1-0.1-0.2-0.2-0.3-0.3l-7.5,7.5
	c1-0.4,1.8-0.8,2.1-1.2l0.4-0.3l0.4,0.3c1.7,1.5,3.9,2.9,6.1,4.2c4.9,2.7,10.1,4.5,12.4,4.5c0.9,0,1.6-0.2,2.2-0.5c0,0,0,0,0,0
	c0.6-0.3,1-0.8,1.3-1.1c0.1-0.2,0.2-0.3,0.3-0.5c0,0,0,0,0,0C739.3,185.8,739.4,185.2,739.3,184.8z M697.2,182.1
	c0,0.1,0.1,0.2,0.2,0.3c0.1,0.1,0.1,0.1,0.2,0.1c0.1,0,0.1,0.1,0.2,0.1L697.2,182.1z"/>
<path class="st2" d="M740.4,185L740.4,185c0.1,0.8-0.2,1.8-0.8,2.6c-0.9,1.2-2.2,1.9-3.8,2.1c-0.2,0-0.4,0-0.6,0c-1,0-2.4-0.3-4-0.8
	l-2.2-0.7c-2.2-0.8-4.7-1.9-7.1-3.3c-2-1.1-4-2.4-5.7-3.8c-0.8,0.6-2.3,1.3-4.3,1.8c-3.7,1.1-9.1,1.7-14.3-0.2c-0.1,0-0.1,0-0.2-0.1
	c-0.1,0-0.1-0.1-0.2-0.1c-0.1-0.1-0.1-0.2-0.2-0.3c0-0.1,0-0.2,0-0.3c0.1-0.3,0.4-0.4,0.7-0.3c6.1,2.3,12.5,0.9,15.9-0.4
	c0,0,0,0,0,0c1-0.4,1.8-0.8,2.1-1.2l0.4-0.3l0.4,0.3c1.7,1.5,3.9,2.9,6.1,4.2c4.9,2.7,10.1,4.5,12.4,4.5c0.9,0,1.6-0.2,2.2-0.5
	c0,0,0,0,0,0c0.6-0.3,1-0.8,1.3-1.1c0.1-0.2,0.2-0.3,0.3-0.5c0,0,0,0,0,0c0.3-0.6,0.4-1.2,0.3-1.6c-0.2-0.7-1.8-1-2.8-1.2
	c-0.6-0.1-1-0.2-1.3-0.3l-0.4-0.2c-0.9-0.5-2.7-1.3-4.1-2.5c-0.5-0.4-1.5-1.1-2.7-1.9h0c-2.2-1.5-4.9-3.3-6.4-4.9
	c-0.1-0.1-0.2-0.2-0.3-0.3c-2-2.1-4.1-4.3-5.3-4.5c-1.4-0.3-12.6-4.9-16.8-7.1c0,0-0.1,0-0.1,0c-0.1,0-5.3,0.4-8.5,4.5
	c-0.2,0.2-0.5,0.3-0.8,0.1c0,0,0,0-0.1,0c-0.2-0.2-0.2-0.5,0-0.7c2.5-3.2,6.1-4.3,8-4.7c-0.1-0.1-0.2-0.1-0.3-0.2
	c-0.1-0.1-0.2-0.2-0.4-0.3c-0.3-0.3-0.6-0.6-1-1c-0.1-0.1-0.1-0.1-0.2-0.2c-0.3-0.3-0.6-0.6-0.9-0.9c-0.9-1-2-2.1-3.3-3.4v0
	c-1.2-1.3-3.7-4-6.5-7.1c0,0,0.1-0.1,0.1-0.1c0.2-0.3,0.5-0.5,0.7-0.8c2.9,3.1,5.3,5.8,6.6,7.1v0c3.3,3.5,5.8,6,6.3,6.4
	c3,1.9,16,7.2,17.3,7.5c1.5,0.3,3.6,2.4,5.9,4.8c0.1,0.1,0.2,0.2,0.3,0.3c1.4,1.5,4.1,3.3,6.3,4.8c0.1,0,0.1,0.1,0.2,0.1h0
	c1.1,0.8,2,1.4,2.6,1.9c1.3,1.1,2.9,1.9,3.8,2.3l0.4,0.2c0.1,0.1,0.6,0.1,1,0.2c1.4,0.2,3.3,0.6,3.7,1.9
	C740.4,184.6,740.4,184.8,740.4,185z"/>
<g>
	<path class="st1" d="M480.4,199.1c-0.2,1.1-0.4,2.2-0.4,3.3c0,1.5,0.2,3,0.6,4.4c-1.9-0.4-3.8-0.8-5.7-1.3
		c-6.9-1.9-13.5-4.6-19.6-8.1c-6.2-3.6-11.8-7.9-16.8-12.9c-5-5-9.4-10.7-12.9-16.8c-3.5-6.1-6.3-12.6-8.1-19.6
		c-1.8-6.7-2.8-13.7-2.8-21c0-7.3,1-14.3,2.7-21c1.9-6.9,4.6-13.5,8.1-19.6l6.5,3.8l6.5,3.8c-2.9,5-5.1,10.3-6.6,16
		c-1.5,5.5-2.2,11.2-2.2,17.1s0.8,11.7,2.2,17.1c1.5,5.7,3.8,11,6.6,16c2.9,5,6.4,9.6,10.5,13.7c4.1,4.1,8.7,7.6,13.7,10.5
		c5,2.9,10.3,5.1,16,6.6c1.6,0.4,3.3,0.8,5,1.1C482.2,194.1,481,196.5,480.4,199.1z"/>
	<path class="st1" d="M577.2,127.1c0,7.3-1,14.3-2.8,21c-1.9,6.9-4.6,13.5-8.1,19.6c-3.6,6.2-7.9,11.8-12.9,16.8
		c-5,5-10.7,9.4-16.8,12.9c-6.1,3.5-12.6,6.3-19.6,8.1c-1.9,0.5-3.8,0.9-5.7,1.3c0.4-1.4,0.6-2.9,0.6-4.4c0-1.1-0.1-2.3-0.4-3.3
		c-0.6-2.6-1.8-5-3.4-7c1.7-0.3,3.4-0.7,5-1.1c5.7-1.5,11-3.8,16-6.6c5-2.9,9.6-6.4,13.7-10.5c4.1-4.1,7.6-8.7,10.5-13.7
		c2.9-5,5.1-10.3,6.6-16c1.5-5.5,2.2-11.2,2.2-17.1s-0.8-11.7-2.2-17.1c-1.5-5.7-3.8-11-6.6-16l6.5-3.8l6.5-3.8
		c3.5,6.1,6.3,12.6,8.1,19.6C576.2,112.8,577.2,119.8,577.2,127.1z"/>
	<path class="st1" d="M592.2,127.1c0,8.6-1.1,17-3.3,24.9c-2.2,8.2-5.4,16-9.6,23.2c-4.2,7.3-9.4,14-15.3,19.9
		c-5.9,5.9-12.6,11.1-19.9,15.3h0c-7.2,4.2-15,7.4-23.2,9.6c-8,2.1-16.3,3.3-24.9,3.3s-17-1.1-24.9-3.3c-8.2-2.2-16-5.4-23.2-9.6
		c-7.3-4.2-14-9.4-19.9-15.3c-5.9-5.9-11.1-12.6-15.3-19.9c-4.2-7.2-7.4-15-9.6-23.2c-2.1-7.9-3.3-16.3-3.3-24.9
		c0-8.6,1.1-17,3.3-24.9c2.2-8.2,5.4-16,9.6-23.2l6.5,3.8l6.5,3.7l6.5,3.8l6.5,3.7c-2.9,5-5.1,10.3-6.6,16
		c-1.5,5.5-2.2,11.2-2.2,17.1c0,5.9,0.8,11.7,2.2,17.1c1.5,5.6,3.7,11,6.6,15.9c2.9,5,6.5,9.6,10.5,13.7c4.1,4.1,8.7,7.6,13.7,10.5
		c4.9,2.9,10.3,5.1,16,6.6c1.6,0.4,3.3,0.8,5,1.1c-1.7,2-2.9,4.4-3.5,7c-0.2,1.1-0.4,2.2-0.4,3.3c0,1.5,0.2,3,0.6,4.4
		c1,3.5,3.1,6.4,5.9,8.5c2.6,1.9,5.9,3.1,9.4,3.1h0c3.5,0,6.8-1.1,9.4-3.1c2.8-2.1,4.9-5,5.9-8.5c0.4-1.4,0.6-2.9,0.6-4.4
		c0-1.1-0.1-2.3-0.4-3.3c-0.6-2.6-1.8-5-3.5-7c1.7-0.3,3.4-0.7,5-1.1c5.7-1.5,11-3.7,16-6.6c5-2.9,9.6-6.4,13.7-10.5
		s7.6-8.7,10.5-13.7c2.9-4.9,5.1-10.3,6.6-15.9c1.5-5.5,2.2-11.2,2.2-17.1c0-5.9-0.8-11.7-2.2-17.1c-1.5-5.6-3.7-11-6.6-15.9
		l5.9-3.4l5.9-3.4l1.2-0.7l4.7-2.7l5.9-3.4l2.4-1.4c4.2,7.2,7.4,15,9.6,23.2v0C591.1,110.1,592.2,118.5,592.2,127.1z"/>
	<path class="st1" d="M607.3,127.1c0,9.9-1.3,19.6-3.8,28.8c-2.5,9.5-6.3,18.5-11.1,26.8c-4.9,8.5-10.9,16.2-17.7,23.1
		c-6.8,6.9-14.6,12.8-23,17.7l-2-3.6l-3.4-5.9l-2.1-3.6c-7.2,4.2-15,7.4-23.2,9.6c-8,2.1-16.3,3.3-24.9,3.3v15
		c-10,0-19.6-1.3-28.8-3.8c-9.5-2.5-18.5-6.3-26.8-11.1c-8.5-4.9-16.2-10.9-23-17.7c-6.9-6.8-12.8-14.6-17.7-23
		c-4.8-8.3-8.6-17.3-11.1-26.9c-2.5-9.2-3.8-18.8-3.8-28.8c0-10,1.3-19.6,3.8-28.8c2.5-9.5,6.3-18.5,11.1-26.8l6.5,3.8l6.5,3.8
		l6.5,3.8l6.5,3.7l6.5,3.8l6.5,3.7c-2.9,5-5.1,10.3-6.6,16c-1.5,5.5-2.2,11.2-2.2,17.1c0,5.9,0.8,11.7,2.2,17.1
		c1.5,5.6,3.7,11,6.6,15.9c2.9,5,6.5,9.6,10.5,13.7c4.1,4.1,8.7,7.6,13.7,10.5c4.9,2.9,10.3,5.1,16,6.6c1.6,0.4,3.3,0.8,5,1.1
		c-1.7,2-2.9,4.4-3.5,7c-0.2,1.1-0.4,2.2-0.4,3.3c0,1.5,0.2,3,0.6,4.4c1,3.5,3.1,6.4,5.9,8.5c2.6,1.9,5.9,3.1,9.4,3.1h0
		c3.5,0,6.8-1.1,9.4-3.1c2.8-2.1,4.9-5,5.9-8.5c0.4-1.4,0.6-2.9,0.6-4.4c0-1.1-0.1-2.3-0.4-3.3c-0.6-2.6-1.8-5-3.5-7
		c1.7-0.3,3.4-0.7,5-1.1c5.7-1.5,11-3.7,16-6.6c5-2.9,9.6-6.4,13.7-10.5s7.6-8.7,10.5-13.7c2.9-4.9,5.1-10.3,6.6-15.9
		c1.5-5.5,2.2-11.2,2.2-17.1c0-5.9-0.8-11.7-2.2-17.1c-1.5-5.6-3.7-11-6.6-15.9l5.9-3.4l5.9-3.4l1.2-0.7l4.7-2.7l5.9-3.4l2.4-1.4
		l3.5-2l5.9-3.4l3.5-2.1v0c4.8,8.3,8.6,17.3,11.1,26.8C606,107.5,607.3,117.1,607.3,127.1z"/>
	<path class="st1" d="M618,94.4L618,94.4c-2.9-10.8-7.2-21-12.6-30.5l-4.7,2.7l-2.2,1.2l-3.8,2.2l-2.4,1.4h0v0l-0.7,0.4l-0.4,0.2
		l-1,0.6l-1.4,0.8l-3,1.7l-3,1.7l0,0l-3,1.7l-0.5,0.3l-0.1,0l-2.4,1.4h0l-5.9,3.4v0h0l-2.1,1.2l-2.6,1.5l-1.2,0.7l-3,1.7l-1.3,0.7
		l-0.3,0.2l-0.2,0.1l-0.5,0.3h0l-0.2,0.1l-0.4,0.2h0l-2.2,1.2l-3.8,2.2c1.1,1.8,2.1,3.8,3,5.7c0.3,0.7,0.6,1.3,0.9,2
		c0.1,0.4,0.3,0.7,0.4,1c0.1,0.3,0.3,0.7,0.4,1c0.1,0.2,0.1,0.3,0.2,0.5c0,0.1,0.1,0.2,0.1,0.3c0,0.1,0.1,0.2,0.1,0.3
		c0,0,0,0.1,0,0.1c0,0,0,0,0,0c0.1,0.2,0.2,0.4,0.2,0.6c0,0,0,0.1,0,0.1c0.1,0.2,0.1,0.4,0.2,0.5c0,0,0,0.1,0.1,0.1v0
		c0,0,0,0.1,0.1,0.1c0.1,0.4,0.3,0.8,0.4,1.3c0.1,0.5,0.3,0.9,0.4,1.4c0.1,0.2,0.1,0.5,0.2,0.7c0.1,0.5,0.3,1,0.4,1.6
		c0.1,0.5,0.2,1,0.3,1.4c0,0,0,0.1,0,0.1c0.1,0.5,0.2,1,0.3,1.5c0.1,0.5,0.2,1.1,0.3,1.6c0,0,0,0,0,0c0.1,0.7,0.2,1.4,0.3,2.1
		c0,0.1,0,0.2,0,0.2c0.1,0.5,0.1,1,0.2,1.4c0.1,0.5,0.1,1,0.2,1.6c0,0.4,0.1,0.7,0.1,1.1c0.1,1.5,0.1,2.9,0.1,4.4v0
		c0,1.5-0.1,3-0.1,4.4c-0.1,1.4-0.2,2.9-0.4,4.3c0,0.1,0,0.1,0,0.2c-0.1,0.7-0.2,1.3-0.3,2c-0.1,0.7-0.2,1.4-0.4,2.1
		c-0.1,0.4-0.2,0.8-0.2,1.2c-0.1,0.5-0.2,1-0.3,1.5c-0.1,0.5-0.2,1-0.4,1.5v0c-0.1,0.5-0.3,1-0.4,1.5c0,0,0,0,0,0v0c0,0,0,0.1,0,0.1
		c0,0.1-0.1,0.2-0.1,0.3c0,0.1-0.1,0.2-0.1,0.3c0,0.1-0.1,0.2-0.1,0.3c-0.1,0.2-0.1,0.4-0.2,0.5c0,0,0,0,0,0.1c0,0,0,0.1,0,0.1
		c0,0.1-0.1,0.2-0.1,0.2c0,0,0,0,0,0c0,0,0,0,0,0.1c0,0.1-0.1,0.2-0.1,0.4c-0.1,0.2-0.1,0.4-0.2,0.7c0,0,0,0,0,0.1
		c-0.1,0.3-0.2,0.6-0.3,0.9c0,0.1-0.1,0.2-0.1,0.3c0,0,0,0,0,0c-0.1,0.3-0.2,0.6-0.4,0.9c-0.1,0.3-0.2,0.6-0.4,1
		c-0.1,0.2-0.1,0.3-0.2,0.4c0,0.1-0.1,0.2-0.1,0.3c0,0,0,0,0,0c0,0.1-0.1,0.2-0.1,0.3c0,0,0,0,0,0c-0.1,0.3-0.3,0.6-0.4,0.9
		c0,0.1-0.1,0.1-0.1,0.2c0,0.1-0.1,0.1-0.1,0.2v0c0,0,0,0,0,0.1c-0.1,0.2-0.2,0.4-0.3,0.6c-0.1,0.3-0.3,0.6-0.4,0.9
		c-0.1,0.3-0.3,0.5-0.4,0.8c0,0,0,0,0,0.1c-0.2,0.3-0.3,0.7-0.5,1c0,0,0,0.1,0,0.1c-0.2,0.3-0.3,0.6-0.5,0.9
		c-0.1,0.1-0.1,0.3-0.2,0.4c-0.2,0.3-0.3,0.6-0.5,0.9c-0.1,0.1-0.2,0.3-0.2,0.4c-0.1,0.2-0.2,0.4-0.3,0.5c-0.1,0.2-0.2,0.3-0.3,0.5
		c-0.2,0.3-0.3,0.5-0.5,0.8c-0.3,0.5-0.6,1-0.9,1.4c0,0,0,0,0,0h0c-0.4,0.6-0.8,1.2-1.2,1.8c-0.4,0.6-0.8,1.2-1.3,1.7c0,0,0,0,0,0
		c0,0-0.1,0.1-0.1,0.1c-0.3,0.4-0.7,0.8-1,1.2c-0.1,0.1-0.2,0.2-0.3,0.3c-0.1,0.2-0.3,0.4-0.4,0.5c-0.8,0.9-1.6,1.9-2.4,2.7l0,0
		c-0.3,0.3-0.5,0.5-0.8,0.8s-0.5,0.5-0.7,0.8h0c-0.2,0.2-0.5,0.5-0.7,0.7c-0.2,0.2-0.5,0.5-0.7,0.7c0,0-0.1,0.1-0.1,0.1v0
		c-0.1,0.1-0.2,0.1-0.2,0.2c-0.3,0.3-0.6,0.5-0.8,0.8c0,0,0,0,0,0c0,0,0,0,0,0c0,0,0,0-0.1,0.1c0,0,0,0,0,0
		c-0.1,0.1-0.2,0.2-0.3,0.3c0,0,0,0,0,0v0h0c-0.4,0.3-0.8,0.7-1.2,1c0,0-0.1,0.1-0.1,0.1c-0.1,0.1-0.2,0.2-0.4,0.3
		c-0.2,0.2-0.3,0.3-0.5,0.4c0,0-0.1,0.1-0.1,0.1c-0.3,0.2-0.5,0.4-0.8,0.6c-0.1,0-0.1,0.1-0.2,0.1c0,0,0,0,0,0v0h0
		c-0.1,0.1-0.2,0.1-0.3,0.2c-0.4,0.3-0.8,0.6-1.2,0.9c0,0-0.1,0-0.1,0.1c0,0-0.1,0-0.1,0.1c-0.5,0.3-0.9,0.6-1.4,0.9
		c-0.1,0.1-0.3,0.2-0.4,0.3h0v0c-0.1,0.1-0.2,0.1-0.3,0.2c-0.1,0.1-0.3,0.2-0.4,0.2c-0.1,0-0.1,0.1-0.2,0.1c-0.3,0.2-0.7,0.4-1,0.6
		c0,0,0,0,0,0c-0.6,0.4-1.2,0.7-1.8,1.1h0c-0.2,0.1-0.4,0.2-0.6,0.3c-0.4,0.2-0.7,0.4-1.1,0.6c0,0-0.1,0-0.1,0c0,0-0.1,0-0.1,0h0
		c-0.1,0.1-0.2,0.1-0.3,0.2c0,0-0.1,0-0.1,0.1c-0.4,0.2-0.7,0.4-1.1,0.6c-0.1,0-0.1,0.1-0.2,0.1c0,0-0.1,0-0.1,0.1
		c-0.1,0-0.2,0.1-0.3,0.1c-0.3,0.2-0.7,0.3-1,0.5c-0.1,0.1-0.3,0.1-0.4,0.2c-0.1,0.1-0.2,0.1-0.3,0.2c-0.2,0.1-0.3,0.1-0.5,0.2
		c-0.5,0.2-1,0.4-1.5,0.6h0c-0.1,0-0.1,0-0.2,0.1c-0.6,0.3-1.2,0.5-1.8,0.7h0c-0.1,0-0.1,0.1-0.2,0.1c-0.4,0.2-0.8,0.3-1.2,0.4
		c0,0-0.1,0-0.1,0c-0.1,0-0.2,0.1-0.3,0.1c-0.1,0-0.2,0.1-0.3,0.1h0c-1,0.3-2.1,0.7-3.1,1c-0.4,0.1-0.7,0.2-1.1,0.3h0
		c-0.1,0-0.2,0-0.2,0.1c0,0-0.1,0-0.1,0c0,0-0.1,0-0.1,0c0,0-0.1,0-0.1,0c-0.1,0-0.3,0.1-0.4,0.1c0,0-0.1,0-0.1,0v0
		c-0.1,0-0.1,0-0.2,0c-0.4,0.1-0.8,0.2-1.1,0.3c0,0-0.1,0-0.1,0c0,0,0,0,0,0s0,0,0,0c0,0,0,0,0,0c-0.2,0-0.4,0.1-0.6,0.1
		c0,0,0,0-0.1,0c0,0,0,0,0,0c0,0,0,0-0.1,0c0,0,0,0,0,0s0,0,0,0c0,0,0,0,0,0c0,0,0,0,0,0c-0.1,0-0.2,0-0.3,0.1
		c-0.2,0-0.4,0.1-0.6,0.1c-0.2,0-0.4,0.1-0.6,0.1h0c0.2,0.2,0.4,0.5,0.6,0.8c0,0,0,0,0,0h0c0.2,0.3,0.4,0.5,0.6,0.8v0
		c0.1,0.2,0.3,0.4,0.4,0.6c0,0,0.1,0.1,0.1,0.1c0,0,0.1,0.1,0.1,0.1c0,0,0.1,0.1,0.1,0.2c0,0,0,0,0,0c0,0,0,0.1,0,0.1
		c0,0,0,0.1,0.1,0.1c0,0.1,0.1,0.2,0.2,0.3c0.1,0.2,0.2,0.3,0.3,0.5c0,0,0,0.1,0.1,0.1c0.1,0.1,0.1,0.3,0.2,0.5v0h0
		c0.1,0.2,0.2,0.5,0.3,0.7c0,0,0,0.1,0,0.1c0,0,0,0,0,0c0,0,0,0,0,0.1c0,0,0,0,0,0c0,0.1,0.1,0.3,0.1,0.4c0,0,0,0,0,0
		c0,0.2,0.1,0.3,0.1,0.5c0,0.1,0,0.1,0,0.2c0.1,0.2,0.1,0.5,0.2,0.8c0,0.1,0,0.2,0.1,0.3c0,0,0,0.1,0,0.2c0,0.1,0,0.1,0,0.2
		c0,0,0,0,0,0c0,0,0,0.1,0,0.1c0,0.3,0.1,0.6,0.1,0.8c0,0.6,0.1,1.1,0.1,1.7c0,0.2,0,0.4,0,0.5c0,0.2,0,0.4,0,0.6c0,0.2,0,0.4,0,0.6
		c0,0,0,0,0,0c0,0.1,0,0.1,0,0.2c0,0,0,0.1,0,0.1c0,0.1,0,0.2,0,0.3v0c0,0,0,0.1,0,0.2c0,0.2-0.1,0.3-0.1,0.5c0,0,0,0,0,0.1v0
		c0,0,0,0.1,0,0.1c0,0,0,0,0,0.1c0,0.1,0,0.2-0.1,0.3c0,0,0,0,0,0c0,0,0,0.1,0,0.1c0,0.1,0,0.2-0.1,0.2c0,0.2-0.1,0.3-0.1,0.4
		c0,0,0,0,0,0.1c0,0,0,0,0,0v0c-0.1,0.4-0.3,0.8-0.4,1.3c-0.6,1.6-1.5,3.2-2.6,4.5c-0.3,0.3-0.6,0.6-0.9,1c-0.5,0.5-0.9,0.9-1.5,1.3
		c-0.2,0.1-0.3,0.3-0.5,0.4c-0.3,0.2-0.7,0.5-1,0.7c-0.4,0.2-0.7,0.4-1.1,0.6c-0.9,0.5-1.9,0.9-2.9,1.2c-0.4,0.1-0.8,0.2-1.2,0.3
		c0,0,0,0,0,0c-1,0.2-2.1,0.3-3.2,0.3h0c-1.1,0-2.1-0.1-3.1-0.3c-0.1,0-0.1,0-0.2,0c-0.3-0.1-0.7-0.1-1-0.2c-0.1,0-0.2-0.1-0.3-0.1
		c-1-0.3-1.9-0.7-2.7-1.1c-0.4-0.2-0.7-0.4-1.1-0.6c-0.4-0.2-0.7-0.4-1-0.7c-0.7-0.5-1.4-1.1-2-1.7c-0.3-0.3-0.6-0.6-0.9-1
		c-0.3-0.4-0.6-0.8-0.9-1.2c-0.1-0.1-0.2-0.3-0.3-0.4c-0.1-0.1-0.2-0.3-0.2-0.4c-0.1-0.2-0.2-0.3-0.3-0.5c-0.2-0.3-0.3-0.5-0.4-0.8
		c0-0.1-0.1-0.2-0.1-0.3c-0.1-0.3-0.3-0.6-0.4-0.9v0c-0.1-0.2-0.2-0.4-0.2-0.6s-0.1-0.4-0.2-0.6c0-0.1,0-0.1-0.1-0.2
		c0-0.1,0-0.1-0.1-0.2c-0.1-0.2-0.1-0.4-0.2-0.7v0c0,0,0,0,0-0.1c0,0,0,0,0-0.1c0,0,0,0,0-0.1c0-0.1,0-0.2-0.1-0.3
		c0-0.1,0-0.2,0-0.3c0,0,0,0,0,0c0,0,0-0.1,0-0.1v0c0-0.1,0-0.1,0-0.2c0,0,0-0.1,0-0.2v0c0,0,0,0,0-0.1c0-0.2,0-0.3-0.1-0.5
		c0,0,0-0.1,0-0.1c0-0.1,0-0.2,0-0.3c0-0.2,0-0.4,0-0.6c0-0.2,0-0.3,0-0.4c0-0.1,0-0.3,0-0.4c0-0.3,0-0.6,0-0.9c0-0.2,0-0.3,0-0.5
		c0,0,0,0,0,0c0,0,0-0.1,0-0.1c0,0,0-0.1,0-0.1c0-0.2,0-0.4,0.1-0.6c0-0.3,0.1-0.6,0.2-0.8c0.1-0.3,0.1-0.5,0.2-0.8c0,0,0-0.1,0-0.1
		v0c0.1-0.2,0.1-0.4,0.2-0.6c0.1-0.2,0.1-0.4,0.2-0.7c0,0,0,0,0-0.1c0.1-0.2,0.1-0.3,0.2-0.5v0c0,0,0,0,0,0c0,0,0,0,0-0.1
		c0,0,0,0,0-0.1c0-0.1,0.1-0.2,0.1-0.3c0-0.1,0.1-0.2,0.1-0.3c0-0.1,0-0.1,0.1-0.2h0v0c0,0,0,0,0,0c0,0,0-0.1,0.1-0.1
		c0-0.1,0.1-0.2,0.1-0.3c0-0.1,0.1-0.2,0.2-0.3c0,0,0,0,0,0c0,0,0,0,0,0c0,0,0,0,0,0c0-0.1,0.1-0.1,0.1-0.2c0-0.1,0.1-0.1,0.1-0.2
		c0,0,0,0,0,0c0-0.1,0.1-0.1,0.1-0.2c0,0,0,0,0.1-0.1c0.1-0.1,0.1-0.2,0.2-0.3c0.1-0.2,0.2-0.3,0.3-0.5c0-0.1,0.1-0.1,0.1-0.2
		c0,0,0,0,0.1-0.1c0,0,0,0,0,0c0,0,0-0.1,0.1-0.1c0.1-0.1,0.2-0.3,0.3-0.4c0-0.1,0.1-0.1,0.1-0.2h0c-0.3-0.1-0.7-0.1-1-0.2
		c-0.1,0-0.1,0-0.2,0c-0.1,0-0.2,0-0.2,0c0,0,0,0,0,0c0,0-0.1,0-0.1,0c-0.2,0-0.4-0.1-0.7-0.1c-0.1,0-0.2,0-0.4-0.1c0,0,0,0-0.1,0
		c-0.1,0-0.2,0-0.3-0.1c-0.3-0.1-0.6-0.2-0.9-0.2h0c0,0,0,0-0.1,0c0,0-0.1,0-0.1,0c-0.1,0-0.2,0-0.2,0c0,0,0,0-0.1,0
		c-0.1,0-0.2,0-0.3-0.1c-0.1,0-0.2,0-0.3-0.1c-0.4-0.1-0.7-0.2-1.1-0.3c-1-0.3-2.1-0.6-3.1-1c-0.7-0.2-1.3-0.4-1.9-0.7
		c0,0-0.1,0-0.1-0.1h0c0,0-0.1,0-0.1,0c0,0-0.1,0-0.1,0c-0.5-0.2-1-0.4-1.5-0.6c0,0,0,0-0.1,0c0,0-0.1,0-0.1,0c0,0,0,0-0.1,0
		c0,0,0,0,0,0c-0.1-0.1-0.3-0.1-0.4-0.2c-0.5-0.2-1-0.4-1.6-0.7c-0.6-0.3-1.3-0.6-1.9-0.9c-0.3-0.1-0.6-0.3-0.9-0.4
		c-0.3-0.1-0.6-0.3-0.8-0.4c-0.1,0-0.2-0.1-0.2-0.1c-0.1-0.1-0.2-0.1-0.2-0.1c0,0-0.1,0-0.1,0c-0.5-0.3-1-0.6-1.5-0.9
		c-0.6-0.4-1.2-0.7-1.9-1.1h0c-0.3-0.2-0.6-0.4-0.9-0.5c-0.2-0.1-0.3-0.2-0.5-0.3c-0.1-0.1-0.2-0.1-0.3-0.2c0,0,0,0-0.1,0
		c0,0-0.1,0-0.1-0.1v0c-0.1-0.1-0.3-0.2-0.4-0.3c-0.2-0.1-0.3-0.2-0.5-0.3c-0.1,0-0.1-0.1-0.2-0.1c-0.2-0.1-0.3-0.2-0.4-0.3
		c-0.1,0-0.1-0.1-0.2-0.1c0,0,0,0-0.1,0l0,0c0,0,0,0,0,0h0c-0.1,0-0.1-0.1-0.2-0.1c0,0-0.1-0.1-0.1-0.1c-0.1-0.1-0.3-0.2-0.4-0.3
		c-0.3-0.2-0.7-0.5-1-0.7c-0.3-0.2-0.6-0.5-1-0.8c-0.2-0.2-0.5-0.4-0.7-0.6h0c-0.3-0.2-0.5-0.5-0.8-0.7c-0.3-0.2-0.5-0.5-0.8-0.7v0
		c-0.3-0.2-0.5-0.5-0.8-0.7c-0.3-0.2-0.5-0.5-0.8-0.7c0,0,0,0,0,0c-0.4-0.4-0.8-0.8-1.2-1.2c-0.1-0.1-0.1-0.1-0.2-0.2v0
		c0,0-0.1-0.1-0.1-0.1v0c-0.2-0.2-0.4-0.4-0.5-0.5c-0.3-0.3-0.5-0.6-0.8-0.8c0,0,0,0-0.1-0.1c0,0-0.1-0.1-0.1-0.1v0h0
		c-0.2-0.2-0.4-0.4-0.6-0.6c-0.2-0.2-0.4-0.4-0.5-0.6c-0.1-0.1-0.2-0.2-0.3-0.3c0,0,0-0.1-0.1-0.1v0h0c0,0,0,0-0.1-0.1
		c-0.1-0.1-0.2-0.2-0.2-0.3c0-0.1-0.1-0.1-0.1-0.2l0,0c-0.3-0.4-0.6-0.7-0.9-1.1c-0.1-0.1-0.1-0.1-0.2-0.2c-0.1-0.1-0.2-0.2-0.3-0.4
		c0,0-0.1-0.1-0.1-0.2c0,0,0,0,0,0c-0.3-0.4-0.7-0.8-1-1.3c-0.4-0.4-0.7-0.9-1-1.4c-0.1-0.1-0.1-0.2-0.2-0.3
		c-0.3-0.4-0.6-0.9-0.9-1.3c0,0,0-0.1-0.1-0.1c0,0,0-0.1-0.1-0.1c-0.3-0.5-0.7-1-1-1.5c0-0.1-0.1-0.1-0.1-0.2c0,0,0,0,0,0
		c0,0,0,0,0-0.1c0,0,0,0,0,0c0,0,0,0,0,0c0,0,0,0-0.1-0.1c0,0,0-0.1-0.1-0.1c0,0,0-0.1,0-0.1c-0.1-0.1-0.1-0.2-0.2-0.2c0,0,0,0,0,0
		c-0.2-0.3-0.4-0.6-0.5-0.9c0,0,0-0.1-0.1-0.1c0,0,0-0.1-0.1-0.1c0-0.1-0.1-0.1-0.1-0.1v0h0c0,0,0,0,0,0c-0.4-0.6-0.7-1.2-1-1.9
		c0,0,0,0,0,0c-0.6-1.1-1.1-2.1-1.6-3.2c-0.1-0.2-0.2-0.4-0.3-0.6c-0.3-0.7-0.6-1.3-0.9-2c-0.3-0.7-0.5-1.3-0.8-2
		c-0.2-0.6-0.4-1.2-0.6-1.8c-0.1-0.2-0.2-0.5-0.2-0.7c-0.1-0.4-0.3-0.8-0.4-1.2c-0.1-0.3-0.2-0.5-0.2-0.8c-0.2-0.6-0.4-1.2-0.5-1.8
		v0c0-0.1,0-0.1,0-0.1c0,0,0,0,0,0c-0.1-0.3-0.1-0.5-0.2-0.8c0,0,0-0.1,0-0.1c0-0.1,0-0.2-0.1-0.3c0,0,0-0.1,0-0.1c0,0,0-0.1,0-0.1
		c0,0,0,0,0,0c-0.1-0.2-0.1-0.5-0.2-0.7c0,0,0,0,0-0.1c0,0,0,0,0-0.1c0,0,0,0,0,0c0,0,0,0,0,0c0-0.1,0-0.2,0-0.2
		c0-0.2-0.1-0.4-0.1-0.6c0,0,0,0,0-0.1c0-0.1,0-0.1,0-0.2c0,0,0,0,0,0v0c0-0.1,0-0.1,0-0.2c0,0,0,0,0-0.1c0,0,0-0.1,0-0.2h0
		c-0.1-0.4-0.1-0.8-0.2-1.2c0-0.2-0.1-0.3-0.1-0.5c0,0,0,0,0-0.1c0,0,0-0.1,0-0.1c0,0,0-0.1,0-0.2c0,0,0,0,0,0c0,0,0-0.1,0-0.1
		c0,0,0-0.1,0-0.1c-0.1-0.5-0.2-1-0.2-1.5c0,0,0,0,0,0c0,0,0-0.1,0-0.2s0-0.1,0-0.2c0-0.1,0-0.1,0-0.2c0,0,0,0,0,0c0,0,0-0.1,0-0.1
		c0-0.2,0-0.3-0.1-0.4c-0.1-0.5-0.1-1-0.2-1.5c0,0,0-0.1,0-0.1c0,0,0-0.1,0-0.1c0-0.1,0-0.1,0-0.2c0-0.3,0-0.5-0.1-0.8
		c0-0.5-0.1-0.9-0.1-1.4c0,0,0,0,0,0c0-0.2,0-0.4,0-0.6c0-0.7-0.1-1.4-0.1-2.1c0,0,0,0,0,0c0-0.4,0-0.7,0-1.1v0c0-0.6,0-1.3,0-2
		c0-0.6,0-1.1,0.1-1.7c0-0.2,0-0.4,0-0.6c0-0.2,0-0.4,0-0.6c0-0.1,0-0.3,0-0.4c0-0.2,0-0.3,0-0.5c0-0.1,0-0.2,0-0.4c0,0,0,0,0,0
		c0,0,0,0,0,0c0-0.1,0-0.2,0-0.4c0-0.1,0-0.2,0-0.2c0-0.2,0-0.4,0.1-0.5c0-0.1,0-0.2,0-0.3c0.1-0.5,0.1-1,0.2-1.4c0-0.1,0-0.1,0-0.2
		c0,0,0,0,0-0.1c0-0.1,0-0.2,0-0.3c0-0.4,0.1-0.8,0.2-1.2c0.1-0.7,0.2-1.4,0.4-2.1s0.3-1.4,0.5-2.1c0.2-0.7,0.3-1.4,0.5-2.1
		c0.2-0.5,0.3-1.1,0.5-1.6c0.1-0.4,0.2-0.8,0.3-1.2c0.1-0.2,0.2-0.5,0.2-0.7c0.1-0.3,0.2-0.7,0.3-1c0-0.1,0-0.1,0.1-0.2
		c0.2-0.5,0.4-1,0.5-1.5c0-0.1,0.1-0.2,0.1-0.2c0.2-0.6,0.5-1.2,0.7-1.8v0c0.3-0.7,0.6-1.3,0.9-2c0.3-0.7,0.6-1.3,0.9-1.9h0v0
		c0.1-0.1,0.1-0.2,0.2-0.4c0.2-0.5,0.5-1,0.8-1.5v0c0.3-0.6,0.7-1.2,1-1.9l-3.2-1.9l-3.3-1.9l-3.8-2.2l-2.7-1.6l-1.9-1.1l-4.6-2.6
		l-6.5-3.8l-3.2-1.9l-3.3-1.9v0l-1.7-1l-2-1.2l-2.7-1.6h0l-6.5-3.8l-6.5-3.8h0c-5.5,9.5-9.7,19.7-12.6,30.5
		c-2.8,10.4-4.3,21.4-4.3,32.7v0c0,11.3,1.5,22.3,4.3,32.7v0c2.9,10.8,7.2,21,12.6,30.5c0,0,0,0,0,0c5.5,9.6,12.3,18.4,20.1,26.1h0
		c0,0,0.1,0.1,0.1,0.1c7.8,7.7,16.5,14.5,26,20h0c9.5,5.5,19.7,9.7,30.5,12.6c4.2,1.1,8.5,2,12.9,2.7c6.4,1,13.1,1.5,19.8,1.5h0
		c0.8,0,1.6,0,2.3,0c7.3-0.1,14.4-0.9,21.3-2.2c3.1-0.6,6.1-1.3,9.1-2.1h0l-1.4-5.3l-1.8-6.6l-0.6-2.1l-0.1-0.5
		c-0.6,0.2-1.2,0.3-1.7,0.4c0,0-0.1,0-0.1,0c-0.6,0.2-1.2,0.3-1.8,0.5c-0.4,0.1-0.8,0.2-1.2,0.3c-0.5,0.1-0.9,0.2-1.4,0.3
		c-0.2,0-0.4,0.1-0.6,0.1c-0.3,0.1-0.6,0.1-0.9,0.2c0,0,0,0,0,0c0,0,0,0,0,0c-0.3,0.1-0.5,0.1-0.8,0.2c-0.6,0.1-1.2,0.2-1.8,0.3
		c0,0-0.1,0-0.1,0c-0.4,0.1-0.8,0.1-1.2,0.2c-0.1,0-0.3,0-0.4,0.1c-0.3,0-0.6,0.1-0.9,0.1c-0.6,0.1-1.2,0.2-1.9,0.2
		c-0.2,0-0.4,0-0.6,0.1c0,0,0,0-0.1,0c-0.1,0-0.3,0-0.4,0.1c-0.4,0-0.7,0.1-1.1,0.1c-0.1,0-0.2,0-0.3,0c-0.1,0-0.2,0-0.3,0
		c-0.6,0.1-1.2,0.1-1.8,0.2c-0.2,0-0.3,0-0.5,0c-0.4,0-0.8,0.1-1.2,0.1c-0.4,0-0.8,0-1.2,0.1c-0.3,0-0.5,0-0.8,0
		c-0.6,0-1.2,0-1.8,0.1c-0.2,0-0.4,0-0.5,0c-0.2,0-0.3,0-0.5,0c-0.9,0-1.8,0-2.7,0v-15.1h0c0.7,0,1.5,0,2.2,0c0.2,0,0.5,0,0.7,0
		c0.9,0,1.7-0.1,2.6-0.1c0.6,0,1.2-0.1,1.8-0.1c0.3,0,0.6,0,1-0.1c0.6,0,1.2-0.1,1.8-0.2c0.9-0.1,1.8-0.2,2.7-0.3
		c0.3,0,0.6-0.1,0.9-0.1c0.6-0.1,1.2-0.2,1.8-0.3c0.8-0.1,1.7-0.3,2.5-0.4c0.8-0.1,1.7-0.3,2.5-0.5c0.7-0.1,1.3-0.3,2-0.5
		c0.8-0.2,1.7-0.4,2.5-0.6c8.2-2.2,16-5.4,23.2-9.6l2.1,3.6l3.4,5.9l2,3.6l1.4,2.4l3.4,5.9l2.8,4.8c9.6-5.5,18.4-12.3,26.1-20.1v0
		c7.8-7.8,14.6-16.6,20.1-26.1v0c5.5-9.4,9.8-19.7,12.6-30.5v0c2.8-10.4,4.3-21.4,4.3-32.7v0C622.3,115.8,620.8,104.8,618,94.4z"/>
	<path class="st1" d="M524.8,234.6c-9.2,2.5-18.8,3.8-28.8,3.8v-15c8.6,0,17-1.1,24.9-3.3l1.1,4l0.9,3.5l0.6,2.4l0.2,0.7
		L524.8,234.6z"/>
	<path class="st1" d="M632.6,90.5c-3.2-12.1-8-23.5-14.1-34.1v0l0,0l-5.9,3.4l-5.9,3.4l-1.2,0.7l-4.7,2.7l-2.2,1.2l-3.8,2.2
		l-2.4,1.4h0v0l-0.7,0.4l-0.4,0.2l-1,0.6l-1.4,0.8l-3,1.7l-3,1.7l0,0l-3,1.7l-0.5,0.3l-0.1,0l-2.4,1.4h0l-5.9,3.4v0h0l-2.1,1.2
		l-2.6,1.5l-1.2,0.7l-3,1.7l-1.3,0.7l-0.3,0.2l-0.2,0.1l-0.5,0.3h0l-0.2,0.1l-0.4,0.2h0l-2.2,1.2l-3.8,2.2c1.1,1.8,2.1,3.8,3,5.7
		c0.3,0.7,0.6,1.3,0.9,2c0.1,0.4,0.3,0.7,0.4,1c0.1,0.3,0.3,0.7,0.4,1c0.1,0.2,0.1,0.3,0.2,0.5c0,0.1,0.1,0.2,0.1,0.3
		c0,0.1,0.1,0.2,0.1,0.3c0,0,0,0.1,0,0.1c0,0,0,0,0,0c0.1,0.2,0.2,0.4,0.2,0.6c0,0,0,0.1,0,0.1c0.1,0.2,0.1,0.4,0.2,0.5
		c0,0,0,0.1,0.1,0.1v0c0,0,0,0.1,0.1,0.1c0.1,0.4,0.3,0.8,0.4,1.3c0.1,0.5,0.3,0.9,0.4,1.4c0.1,0.2,0.1,0.5,0.2,0.7
		c0.1,0.5,0.3,1,0.4,1.6c0.1,0.5,0.2,1,0.3,1.4c0,0,0,0.1,0,0.1c0.1,0.5,0.2,1,0.3,1.5c0.1,0.5,0.2,1.1,0.3,1.6c0,0,0,0,0,0
		c0.1,0.7,0.2,1.4,0.3,2.1c0,0.1,0,0.2,0,0.2c0.1,0.5,0.1,1,0.2,1.4c0.1,0.5,0.1,1,0.2,1.6c0,0.4,0.1,0.7,0.1,1.1
		c0.1,1.5,0.1,2.9,0.1,4.4v0c0,1.5-0.1,3-0.1,4.4c-0.1,1.4-0.2,2.9-0.4,4.3c0,0.1,0,0.1,0,0.2c-0.1,0.7-0.2,1.3-0.3,2
		c-0.1,0.7-0.2,1.4-0.4,2.1c-0.1,0.4-0.2,0.8-0.2,1.2c-0.1,0.5-0.2,1-0.3,1.5c-0.1,0.5-0.2,1-0.4,1.5v0c-0.1,0.5-0.3,1-0.4,1.5
		c0,0,0,0,0,0v0c0,0,0,0.1,0,0.1c0,0.1-0.1,0.2-0.1,0.3c0,0.1-0.1,0.2-0.1,0.3c0,0.1-0.1,0.2-0.1,0.3c-0.1,0.2-0.1,0.4-0.2,0.5
		c0,0,0,0,0,0.1c0,0,0,0.1,0,0.1c0,0.1-0.1,0.2-0.1,0.2c0,0,0,0,0,0c0,0,0,0,0,0.1c0,0.1-0.1,0.2-0.1,0.4c-0.1,0.2-0.1,0.4-0.2,0.7
		c0,0,0,0,0,0.1c-0.1,0.3-0.2,0.6-0.3,0.9c0,0.1-0.1,0.2-0.1,0.3c0,0,0,0,0,0c-0.1,0.3-0.2,0.6-0.4,0.9c-0.1,0.3-0.2,0.6-0.4,1
		c-0.1,0.2-0.1,0.3-0.2,0.4c0,0.1-0.1,0.2-0.1,0.3c0,0,0,0,0,0c0,0.1-0.1,0.2-0.1,0.3c0,0,0,0,0,0c-0.1,0.3-0.3,0.6-0.4,0.9
		c0,0.1-0.1,0.1-0.1,0.2c0,0.1-0.1,0.1-0.1,0.2v0c0,0,0,0,0,0.1c-0.1,0.2-0.2,0.4-0.3,0.6c-0.1,0.3-0.3,0.6-0.4,0.9
		c-0.1,0.3-0.3,0.5-0.4,0.8c0,0,0,0,0,0.1c-0.2,0.3-0.3,0.7-0.5,1c0,0,0,0.1,0,0.1c-0.2,0.3-0.3,0.6-0.5,0.9
		c-0.1,0.1-0.1,0.3-0.2,0.4c-0.2,0.3-0.3,0.6-0.5,0.9c-0.1,0.1-0.2,0.3-0.2,0.4c-0.1,0.2-0.2,0.4-0.3,0.5c-0.1,0.2-0.2,0.3-0.3,0.5
		c-0.2,0.3-0.3,0.5-0.5,0.8c-0.3,0.5-0.6,1-0.9,1.4c0,0,0,0,0,0h0c-0.4,0.6-0.8,1.2-1.2,1.8c-0.4,0.6-0.8,1.2-1.3,1.7c0,0,0,0,0,0
		c0,0-0.1,0.1-0.1,0.1c-0.3,0.4-0.7,0.8-1,1.2c-0.1,0.1-0.2,0.2-0.3,0.3c-0.1,0.2-0.3,0.4-0.4,0.5c-0.8,0.9-1.6,1.9-2.4,2.7l0,0
		c-0.3,0.3-0.5,0.5-0.8,0.8s-0.5,0.5-0.7,0.8h0c-0.2,0.2-0.5,0.5-0.7,0.7c-0.2,0.2-0.5,0.5-0.7,0.7c0,0-0.1,0.1-0.1,0.1v0
		c-0.1,0.1-0.2,0.1-0.2,0.2c-0.3,0.3-0.6,0.5-0.8,0.8c0,0,0,0,0,0c0,0,0,0,0,0c0,0,0,0-0.1,0.1c0,0,0,0,0,0
		c-0.1,0.1-0.2,0.2-0.3,0.3c0,0,0,0,0,0v0h0c-0.4,0.3-0.8,0.7-1.2,1c0,0-0.1,0.1-0.1,0.1c-0.1,0.1-0.2,0.2-0.4,0.3
		c-0.2,0.2-0.3,0.3-0.5,0.4c0,0-0.1,0.1-0.1,0.1c-0.3,0.2-0.5,0.4-0.8,0.6c-0.1,0-0.1,0.1-0.2,0.1c0,0,0,0,0,0v0h0
		c-0.1,0.1-0.2,0.1-0.3,0.2c-0.4,0.3-0.8,0.6-1.2,0.9c0,0-0.1,0-0.1,0.1c0,0-0.1,0-0.1,0.1c-0.5,0.3-0.9,0.6-1.4,0.9
		c-0.1,0.1-0.3,0.2-0.4,0.3h0v0c-0.1,0.1-0.2,0.1-0.3,0.2c-0.1,0.1-0.3,0.2-0.4,0.2c-0.1,0-0.1,0.1-0.2,0.1c-0.3,0.2-0.7,0.4-1,0.6
		c0,0,0,0,0,0c-0.6,0.4-1.2,0.7-1.8,1.1h0c-0.2,0.1-0.4,0.2-0.6,0.3c-0.4,0.2-0.7,0.4-1.1,0.6c0,0-0.1,0-0.1,0c0,0-0.1,0-0.1,0h0
		c-0.1,0.1-0.2,0.1-0.3,0.2c0,0-0.1,0-0.1,0.1c-0.4,0.2-0.7,0.4-1.1,0.6c-0.1,0-0.1,0.1-0.2,0.1c0,0-0.1,0-0.1,0.1
		c-0.1,0-0.2,0.1-0.3,0.1c-0.3,0.2-0.7,0.3-1,0.5c-0.1,0.1-0.3,0.1-0.4,0.2c-0.1,0.1-0.2,0.1-0.3,0.2c-0.2,0.1-0.3,0.1-0.5,0.2
		c-0.5,0.2-1,0.4-1.5,0.6h0c-0.1,0-0.1,0-0.2,0.1c-0.6,0.3-1.2,0.5-1.8,0.7h0c-0.1,0-0.1,0.1-0.2,0.1c-0.4,0.2-0.8,0.3-1.2,0.4
		c0,0-0.1,0-0.1,0c-0.1,0-0.2,0.1-0.3,0.1c-0.1,0-0.2,0.1-0.3,0.1h0c-1,0.3-2.1,0.7-3.1,1c-0.4,0.1-0.7,0.2-1.1,0.3h0
		c-0.1,0-0.2,0-0.2,0.1c0,0-0.1,0-0.1,0c0,0-0.1,0-0.1,0c0,0-0.1,0-0.1,0c-0.1,0-0.3,0.1-0.4,0.1c0,0-0.1,0-0.1,0v0
		c-0.1,0-0.1,0-0.2,0c-0.4,0.1-0.8,0.2-1.1,0.3c0,0-0.1,0-0.1,0c0,0,0,0,0,0s0,0,0,0c0,0,0,0,0,0c-0.2,0-0.4,0.1-0.6,0.1
		c0,0,0,0-0.1,0c0,0,0,0,0,0c0,0,0,0-0.1,0c0,0,0,0,0,0s0,0,0,0c0,0,0,0,0,0c0,0,0,0,0,0c-0.1,0-0.2,0-0.3,0.1
		c-0.2,0-0.4,0.1-0.6,0.1c-0.2,0-0.4,0.1-0.6,0.1h0c0.2,0.2,0.4,0.5,0.6,0.8c0,0,0,0,0,0h0c0.2,0.3,0.4,0.5,0.6,0.8v0
		c0.1,0.2,0.3,0.4,0.4,0.6c0,0,0.1,0.1,0.1,0.1c0,0,0.1,0.1,0.1,0.1c0,0,0.1,0.1,0.1,0.2c0,0,0,0,0,0c0,0,0,0.1,0,0.1
		c0,0,0,0.1,0.1,0.1c0,0.1,0.1,0.2,0.2,0.3c0.1,0.2,0.2,0.3,0.3,0.5c0,0,0,0.1,0.1,0.1c0.1,0.1,0.1,0.3,0.2,0.5v0h0
		c0.1,0.2,0.2,0.5,0.3,0.7c0,0,0,0.1,0,0.1c0,0,0,0,0,0c0,0,0,0,0,0.1c0,0,0,0,0,0c0,0.1,0.1,0.3,0.1,0.4c0,0,0,0,0,0
		c0,0.2,0.1,0.3,0.1,0.5c0,0.1,0,0.1,0,0.2c0.1,0.2,0.1,0.5,0.2,0.8c0,0.1,0,0.2,0.1,0.3c0,0,0,0.1,0,0.2c0,0.1,0,0.1,0,0.2
		c0,0,0,0,0,0c0,0,0,0.1,0,0.1c0,0.3,0.1,0.6,0.1,0.8c0,0.6,0.1,1.1,0.1,1.7c0,0.2,0,0.4,0,0.5c0,0.2,0,0.4,0,0.6c0,0.2,0,0.4,0,0.6
		c0,0,0,0,0,0c0,0.1,0,0.1,0,0.2c0,0,0,0.1,0,0.1c0,0.1,0,0.2,0,0.3v0c0,0,0,0.1,0,0.2c0,0.2-0.1,0.3-0.1,0.5c0,0,0,0,0,0.1v0
		c0,0,0,0.1,0,0.1c0,0,0,0,0,0.1c0,0.1,0,0.2-0.1,0.3c0,0,0,0,0,0c0,0,0,0.1,0,0.1c0,0.1,0,0.2-0.1,0.2c0,0.2-0.1,0.3-0.1,0.4
		c0,0,0,0,0,0.1c0,0,0,0,0,0v0c-0.1,0.4-0.3,0.8-0.4,1.3c-0.6,1.6-1.5,3.2-2.6,4.5c-0.3,0.3-0.6,0.6-0.9,1c-0.5,0.5-0.9,0.9-1.5,1.3
		c-0.2,0.1-0.3,0.3-0.5,0.4c-0.3,0.2-0.7,0.5-1,0.7c-0.4,0.2-0.7,0.4-1.1,0.6c-0.9,0.5-1.9,0.9-2.9,1.2c-0.4,0.1-0.8,0.2-1.2,0.3
		c0,0,0,0,0,0c-1,0.2-2.1,0.3-3.2,0.3h0c-1.1,0-2.1-0.1-3.1-0.3c-0.1,0-0.1,0-0.2,0c-0.3-0.1-0.7-0.1-1-0.2c-0.1,0-0.2-0.1-0.3-0.1
		c-1-0.3-1.9-0.7-2.7-1.1c-0.4-0.2-0.7-0.4-1.1-0.6c-0.4-0.2-0.7-0.4-1-0.7c-0.7-0.5-1.4-1.1-2-1.7c-0.3-0.3-0.6-0.6-0.9-1
		c-0.3-0.4-0.6-0.8-0.9-1.2c-0.1-0.1-0.2-0.3-0.3-0.4c-0.1-0.1-0.2-0.3-0.2-0.4c-0.1-0.2-0.2-0.3-0.3-0.5c-0.2-0.3-0.3-0.5-0.4-0.8
		c0-0.1-0.1-0.2-0.1-0.3c-0.1-0.3-0.3-0.6-0.4-0.9v0c-0.1-0.2-0.2-0.4-0.2-0.6s-0.1-0.4-0.2-0.6c0-0.1,0-0.1-0.1-0.2
		c0-0.1,0-0.1-0.1-0.2c-0.1-0.2-0.1-0.4-0.2-0.7v0c0,0,0,0,0-0.1c0,0,0,0,0-0.1c0,0,0,0,0-0.1c0-0.1,0-0.2-0.1-0.3
		c0-0.1,0-0.2,0-0.3c0,0,0,0,0,0c0,0,0-0.1,0-0.1v0c0-0.1,0-0.1,0-0.2c0,0,0-0.1,0-0.2v0c0,0,0,0,0-0.1c0-0.2,0-0.3-0.1-0.5
		c0,0,0-0.1,0-0.1c0-0.1,0-0.2,0-0.3c0-0.2,0-0.4,0-0.6c0-0.2,0-0.3,0-0.4c0-0.1,0-0.3,0-0.4c0-0.3,0-0.6,0-0.9c0-0.2,0-0.3,0-0.5
		c0,0,0,0,0,0c0,0,0-0.1,0-0.1c0,0,0-0.1,0-0.1c0-0.2,0-0.4,0.1-0.6c0-0.3,0.1-0.6,0.2-0.8c0.1-0.3,0.1-0.5,0.2-0.8c0,0,0-0.1,0-0.1
		v0c0.1-0.2,0.1-0.4,0.2-0.6c0.1-0.2,0.1-0.4,0.2-0.7c0,0,0,0,0-0.1c0.1-0.2,0.1-0.3,0.2-0.5v0c0,0,0,0,0,0c0,0,0,0,0-0.1
		c0,0,0,0,0-0.1c0-0.1,0.1-0.2,0.1-0.3c0-0.1,0.1-0.2,0.1-0.3c0-0.1,0-0.1,0.1-0.2h0v0c0,0,0,0,0,0c0,0,0-0.1,0.1-0.1
		c0-0.1,0.1-0.2,0.1-0.3c0-0.1,0.1-0.2,0.2-0.3c0,0,0,0,0,0c0,0,0,0,0,0c0,0,0,0,0,0c0-0.1,0.1-0.1,0.1-0.2c0-0.1,0.1-0.1,0.1-0.2
		c0,0,0,0,0,0c0-0.1,0.1-0.1,0.1-0.2c0,0,0,0,0.1-0.1c0.1-0.1,0.1-0.2,0.2-0.3c0.1-0.2,0.2-0.3,0.3-0.5c0-0.1,0.1-0.1,0.1-0.2
		c0,0,0,0,0.1-0.1c0,0,0,0,0,0c0,0,0-0.1,0.1-0.1c0.1-0.1,0.2-0.3,0.3-0.4c0-0.1,0.1-0.1,0.1-0.2h0c-0.3-0.1-0.7-0.1-1-0.2
		c-0.1,0-0.1,0-0.2,0c-0.1,0-0.2,0-0.2,0c0,0,0,0,0,0c0,0-0.1,0-0.1,0c-0.2,0-0.4-0.1-0.7-0.1c-0.1,0-0.2,0-0.4-0.1c0,0,0,0-0.1,0
		c-0.1,0-0.2,0-0.3-0.1c-0.3-0.1-0.6-0.2-0.9-0.2h0c0,0,0,0-0.1,0c0,0-0.1,0-0.1,0c-0.1,0-0.2,0-0.2,0c0,0,0,0-0.1,0
		c-0.1,0-0.2,0-0.3-0.1c-0.1,0-0.2,0-0.3-0.1c-0.4-0.1-0.7-0.2-1.1-0.3c-1-0.3-2.1-0.6-3.1-1c-0.7-0.2-1.3-0.4-1.9-0.7
		c0,0-0.1,0-0.1-0.1h0c0,0-0.1,0-0.1,0c0,0-0.1,0-0.1,0c-0.5-0.2-1-0.4-1.5-0.6c0,0,0,0-0.1,0c0,0-0.1,0-0.1,0c0,0,0,0-0.1,0
		c0,0,0,0,0,0c-0.1-0.1-0.3-0.1-0.4-0.2c-0.5-0.2-1-0.4-1.6-0.7c-0.6-0.3-1.3-0.6-1.9-0.9c-0.3-0.1-0.6-0.3-0.9-0.4
		c-0.3-0.1-0.6-0.3-0.8-0.4c-0.1,0-0.2-0.1-0.2-0.1c-0.1-0.1-0.2-0.1-0.2-0.1c0,0-0.1,0-0.1,0c-0.5-0.3-1-0.6-1.5-0.9
		c-0.6-0.4-1.2-0.7-1.9-1.1h0c-0.3-0.2-0.6-0.4-0.9-0.5c-0.2-0.1-0.3-0.2-0.5-0.3c-0.1-0.1-0.2-0.1-0.3-0.2c0,0,0,0-0.1,0
		c0,0-0.1,0-0.1-0.1v0c-0.1-0.1-0.3-0.2-0.4-0.3c-0.2-0.1-0.3-0.2-0.5-0.3c-0.1,0-0.1-0.1-0.2-0.1c-0.2-0.1-0.3-0.2-0.4-0.3
		c-0.1,0-0.1-0.1-0.2-0.1c0,0,0,0-0.1,0l0,0c0,0,0,0,0,0h0c-0.1,0-0.1-0.1-0.2-0.1c0,0-0.1-0.1-0.1-0.1c-0.1-0.1-0.3-0.2-0.4-0.3
		c-0.3-0.2-0.7-0.5-1-0.7c-0.3-0.2-0.6-0.5-1-0.8c-0.2-0.2-0.5-0.4-0.7-0.6h0c-0.3-0.2-0.5-0.5-0.8-0.7c-0.3-0.2-0.5-0.5-0.8-0.7v0
		c-0.3-0.2-0.5-0.5-0.8-0.7c-0.3-0.2-0.5-0.5-0.8-0.7c0,0,0,0,0,0c-0.4-0.4-0.8-0.8-1.2-1.2c-0.1-0.1-0.1-0.1-0.2-0.2v0
		c0,0-0.1-0.1-0.1-0.1v0c-0.2-0.2-0.4-0.4-0.5-0.5c-0.3-0.3-0.5-0.6-0.8-0.8c0,0,0,0-0.1-0.1c0,0-0.1-0.1-0.1-0.1v0h0
		c-0.2-0.2-0.4-0.4-0.6-0.6c-0.2-0.2-0.4-0.4-0.5-0.6c-0.1-0.1-0.2-0.2-0.3-0.3c0,0,0-0.1-0.1-0.1v0h0c0,0,0,0-0.1-0.1
		c-0.1-0.1-0.2-0.2-0.2-0.3c0-0.1-0.1-0.1-0.1-0.2l0,0c-0.3-0.4-0.6-0.7-0.9-1.1c-0.1-0.1-0.1-0.1-0.2-0.2c-0.1-0.1-0.2-0.2-0.3-0.4
		c0,0-0.1-0.1-0.1-0.2c0,0,0,0,0,0c-0.3-0.4-0.7-0.8-1-1.3c-0.4-0.4-0.7-0.9-1-1.4c-0.1-0.1-0.1-0.2-0.2-0.3
		c-0.3-0.4-0.6-0.9-0.9-1.3c0,0,0-0.1-0.1-0.1c0,0,0-0.1-0.1-0.1c-0.3-0.5-0.7-1-1-1.5c0-0.1-0.1-0.1-0.1-0.2c0,0,0,0,0,0
		c0,0,0,0,0-0.1c0,0,0,0,0,0c0,0,0,0,0,0c0,0,0,0-0.1-0.1c0,0,0-0.1-0.1-0.1c0,0,0-0.1,0-0.1c-0.1-0.1-0.1-0.2-0.2-0.2c0,0,0,0,0,0
		c-0.2-0.3-0.4-0.6-0.5-0.9c0,0,0-0.1-0.1-0.1c0,0,0-0.1-0.1-0.1c0-0.1-0.1-0.1-0.1-0.1v0h0c0,0,0,0,0,0c-0.4-0.6-0.7-1.2-1-1.9
		c0,0,0,0,0,0c-0.6-1.1-1.1-2.1-1.6-3.2c-0.1-0.2-0.2-0.4-0.3-0.6c-0.3-0.7-0.6-1.3-0.9-2c-0.3-0.7-0.5-1.3-0.8-2
		c-0.2-0.6-0.4-1.2-0.6-1.8c-0.1-0.2-0.2-0.5-0.2-0.7c-0.1-0.4-0.3-0.8-0.4-1.2c-0.1-0.3-0.2-0.5-0.2-0.8c-0.2-0.6-0.4-1.2-0.5-1.8
		v0c0-0.1,0-0.1,0-0.1c0,0,0,0,0,0c-0.1-0.3-0.1-0.5-0.2-0.8c0,0,0-0.1,0-0.1c0-0.1,0-0.2-0.1-0.3c0,0,0-0.1,0-0.1c0,0,0-0.1,0-0.1
		c0,0,0,0,0,0c-0.1-0.2-0.1-0.5-0.2-0.7c0,0,0,0,0-0.1c0,0,0,0,0-0.1c0,0,0,0,0,0c0,0,0,0,0,0c0-0.1,0-0.2,0-0.2
		c0-0.2-0.1-0.4-0.1-0.6c0,0,0,0,0-0.1c0-0.1,0-0.1,0-0.2c0,0,0,0,0,0v0c0-0.1,0-0.1,0-0.2c0,0,0,0,0-0.1c0,0,0-0.1,0-0.2h0
		c-0.1-0.4-0.1-0.8-0.2-1.2c0-0.2-0.1-0.3-0.1-0.5c0,0,0,0,0-0.1c0,0,0-0.1,0-0.1c0,0,0-0.1,0-0.2c0,0,0,0,0,0c0,0,0-0.1,0-0.1
		c0,0,0-0.1,0-0.1c-0.1-0.5-0.2-1-0.2-1.5c0,0,0,0,0,0c0,0,0-0.1,0-0.2s0-0.1,0-0.2c0-0.1,0-0.1,0-0.2c0,0,0,0,0,0c0,0,0-0.1,0-0.1
		c0-0.2,0-0.3-0.1-0.4c-0.1-0.5-0.1-1-0.2-1.5c0,0,0-0.1,0-0.1c0,0,0-0.1,0-0.1c0-0.1,0-0.1,0-0.2c0-0.3,0-0.5-0.1-0.8
		c0-0.5-0.1-0.9-0.1-1.4c0,0,0,0,0,0c0-0.2,0-0.4,0-0.6c0-0.7-0.1-1.4-0.1-2.1c0,0,0,0,0,0c0-0.4,0-0.7,0-1.1v0c0-0.6,0-1.3,0-2
		c0-0.6,0-1.1,0.1-1.7c0-0.2,0-0.4,0-0.6c0-0.2,0-0.4,0-0.6c0-0.1,0-0.3,0-0.4c0-0.2,0-0.3,0-0.5c0-0.1,0-0.2,0-0.4c0,0,0,0,0,0
		c0,0,0,0,0,0c0-0.1,0-0.2,0-0.4c0-0.1,0-0.2,0-0.2c0-0.2,0-0.4,0.1-0.5c0-0.1,0-0.2,0-0.3c0.1-0.5,0.1-1,0.2-1.4c0-0.1,0-0.1,0-0.2
		c0,0,0,0,0-0.1c0-0.1,0-0.2,0-0.3c0-0.4,0.1-0.8,0.2-1.2c0.1-0.7,0.2-1.4,0.4-2.1s0.3-1.4,0.5-2.1c0.2-0.7,0.3-1.4,0.5-2.1
		c0.2-0.5,0.3-1.1,0.5-1.6c0.1-0.4,0.2-0.8,0.3-1.2c0.1-0.2,0.2-0.5,0.2-0.7c0.1-0.3,0.2-0.7,0.3-1c0-0.1,0-0.1,0.1-0.2
		c0.2-0.5,0.4-1,0.5-1.5c0-0.1,0.1-0.2,0.1-0.2c0.2-0.6,0.5-1.2,0.7-1.8v0c0.3-0.7,0.6-1.3,0.9-2c0.3-0.7,0.6-1.3,0.9-1.9h0v0
		c0.1-0.1,0.1-0.2,0.2-0.4c0.2-0.5,0.5-1,0.8-1.5v0c0.3-0.6,0.7-1.2,1-1.9l-3.2-1.9l-3.3-1.9l-3.8-2.2l-2.7-1.6l-1.9-1.1l-4.6-2.6
		l-6.5-3.8l-3.2-1.9l-3.3-1.9v0l-1.7-1l-2-1.2l-2.7-1.6h0l-6.5-3.8l-6.5-3.8h0l-2.5-1.5l-4-2.3l-6.5-3.8v0
		c-6.1,10.6-10.9,22-14.1,34.1v0c-3.1,11.7-4.8,23.9-4.8,36.6v0c0,12.7,1.7,24.9,4.8,36.6v0c3.2,12.1,8,23.5,14.1,34.1
		c4.9,8.4,10.6,16.3,17.1,23.5c1.7,1.9,3.5,3.8,5.4,5.7l0,0h0c0,0,0.1,0.1,0.1,0.1c8.7,8.7,18.5,16.2,29.1,22.4h0
		c10.6,6.1,22,10.9,34.1,14.1c6.5,1.7,13.2,3,20,3.8c0.9,0.1,1.9,0.2,2.8,0.3c3,0.3,6,0.5,9,0.6c1.6,0.1,3.2,0.1,4.8,0.1
		c1.6,0,3.3,0,4.9-0.1c0.7,0,1.3,0,2-0.1c0.2,0,0.4,0,0.5,0c0.7,0,1.3-0.1,2-0.1c2-0.1,4-0.3,5.9-0.5c6.8-0.7,13.4-1.9,19.9-3.6
		c0.2,0,0.4-0.1,0.6-0.1c0.2,0,0.4-0.1,0.6-0.2c0.1,0,0.2,0,0.3-0.1l-1.8-6.6l-1.8-6.6l-0.3-1.3l-1.4-5.3l-1.8-6.6l-0.6-2.1
		l-0.1-0.5c-0.6,0.2-1.2,0.3-1.7,0.4c0,0-0.1,0-0.1,0c-0.6,0.2-1.2,0.3-1.8,0.5c-0.4,0.1-0.8,0.2-1.2,0.3c-0.5,0.1-0.9,0.2-1.4,0.3
		c-0.2,0-0.4,0.1-0.6,0.1c-0.3,0.1-0.6,0.1-0.9,0.2c0,0,0,0,0,0c0,0,0,0,0,0c-0.3,0.1-0.5,0.1-0.8,0.2c-0.6,0.1-1.2,0.2-1.8,0.3
		c0,0-0.1,0-0.1,0c-0.4,0.1-0.8,0.1-1.2,0.2c-0.1,0-0.3,0-0.4,0.1c-0.3,0-0.6,0.1-0.9,0.1c-0.6,0.1-1.2,0.2-1.9,0.2
		c-0.2,0-0.4,0-0.6,0.1c0,0,0,0-0.1,0c-0.1,0-0.3,0-0.4,0.1c-0.4,0-0.7,0.1-1.1,0.1c-0.1,0-0.2,0-0.3,0c-0.1,0-0.2,0-0.3,0
		c-0.6,0.1-1.2,0.1-1.8,0.2c-0.2,0-0.3,0-0.5,0c-0.4,0-0.8,0.1-1.2,0.1c-0.4,0-0.8,0-1.2,0.1c-0.3,0-0.5,0-0.8,0
		c-0.6,0-1.2,0-1.8,0.1c-0.2,0-0.4,0-0.5,0c-0.2,0-0.3,0-0.5,0c-0.9,0-1.8,0-2.7,0v-15.1h0c0.7,0,1.5,0,2.2,0c0.2,0,0.5,0,0.7,0
		c0.9,0,1.7-0.1,2.6-0.1c0.6,0,1.2-0.1,1.8-0.1c0.3,0,0.6,0,1-0.1c0.6,0,1.2-0.1,1.8-0.2c0.9-0.1,1.8-0.2,2.7-0.3
		c0.3,0,0.6-0.1,0.9-0.1c0.6-0.1,1.2-0.2,1.8-0.3c0.8-0.1,1.7-0.3,2.5-0.4c0.8-0.1,1.7-0.3,2.5-0.5c0.7-0.1,1.3-0.3,2-0.5
		c0.8-0.2,1.7-0.4,2.5-0.6c8.2-2.2,16-5.4,23.2-9.6l2.1,3.6l3.4,5.9l2,3.6l1.4,2.4l3.4,5.9l2.8,4.8l0.7,1.2l3.4,5.9l3.4,5.9v0
		c10.7-6.2,20.5-13.8,29.2-22.5h0c8.7-8.7,16.3-18.5,22.5-29.3v0c6.1-10.6,10.9-22,14.1-34.1c3.1-11.7,4.8-23.9,4.8-36.6v0
		C637.3,114.4,635.7,102.2,632.6,90.5z"/>
	<path class="st1" d="M566.7,249.5c-5.1,3-10.5,5.6-16,7.9c-0.6,0.3-1.3,0.5-1.9,0.8c-5.3,2.1-10.7,3.9-16.2,5.4l-1.8-6.6l-1.8-6.6
		l-0.4-1.3c3.2-0.8,6.3-1.8,9.4-2.9c0.6-0.2,1.3-0.4,1.9-0.7c6.7-2.5,13.1-5.5,19.2-9h0l0.7,1.2l3.4,5.9L566.7,249.5z"/>
	<path class="st1" d="M559.2,236.5L559.2,236.5c-6.1,3.5-12.5,6.6-19.2,9c-0.6,0.2-1.3,0.5-1.9,0.7c-3.1,1.1-6.2,2.1-9.4,2.9
		l-1.4-5.3l-1.8-6.6l-0.7-2.6c0.8-0.2,1.6-0.4,2.3-0.7c0.7-0.2,1.3-0.4,2-0.6c7.9-2.5,15.5-5.8,22.6-9.9l1.4,2.4l3.4,5.9
		L559.2,236.5z"/>
	<path class="st1" d="M551.6,223.5c-7.1,4.1-14.6,7.4-22.6,9.9c-0.6,0.2-1.3,0.4-2,0.6c-0.8,0.2-1.5,0.5-2.3,0.7l-1.1-4l-0.2-0.7
		l-0.6-2.4L522,224l-1.1-4c8.2-2.2,16-5.4,23.2-9.6l2.1,3.6l3.4,5.9L551.6,223.5z"/>
	<polyline class="st1" points="373.6,56.4 380.1,60.2 386.6,63.9 393.1,67.7 399.6,71.5 406.1,75.2 412.6,79 419.2,82.7 425.7,86.5 
		432.2,90.2 438.7,94 	"/>
	<polyline class="st1" points="432.1,110 424.8,108 417.5,106.1 410.3,104.1 403,102.2 395.8,100.2 388.5,98.3 381.2,96.3 374,94.4 
		366.7,92.4 359.4,90.5 	"/>
	<polyline class="st1" points="486.6,127.1 429.8,127.1 422.3,127.1 414.8,127.1 407.3,127.1 399.8,127.1 392.2,127.1 384.7,127.1 
		377.2,127.1 369.7,127.1 362.2,127.1 354.7,127.1 	"/>
	<polyline class="st1" points="432.1,144.2 424.8,146.2 417.5,148.1 410.3,150.1 403,152 395.7,154 388.5,155.9 381.2,157.9 
		374,159.8 366.7,161.7 359.4,163.7 	"/>
	<polyline class="st1" points="438.7,160.2 432.2,163.9 425.7,167.7 419.2,171.5 412.6,175.2 406.1,179 399.6,182.7 393.1,186.5 
		386.6,190.3 380.1,194 373.6,197.8 	"/>
	<polyline class="st1" points="396.1,227 401.4,221.7 406.7,216.4 412,211.1 417.3,205.8 422.6,200.5 427.9,195.1 433.3,189.8 
		438.6,184.5 443.9,179.2 449.2,173.9 	"/>
	<polyline class="st1" points="462.9,184.4 459.5,190.3 456.1,196.3 452.7,202.2 449.2,208.1 445.8,214 442.4,219.9 439,225.8 
		435.6,231.8 432.1,237.7 428.7,243.6 425.3,249.5 	"/>
	<polyline class="st1" points="478.9,191 477.1,197.6 475.3,204.2 473.6,210.8 471.8,217.4 470,224 468.3,230.6 466.5,237.2 
		464.7,243.8 463,250.4 461.2,257 459.4,263.6 	"/>
	<polyline class="st1" points="496,268.4 496,261.8 496,255.2 496,253.4 496,248.5 496,241.9 496,238.4 	"/>
	<polyline class="st1" points="496,223.3 496,218.4 496,211.3 496,211.2 	"/>
	<path class="st1" d="M496,218.4"/>
	<polyline class="st1" points="520.9,220.1 520.2,217.4 518.4,210.8 517,205.5 516.7,204.2 514.9,197.6 513.1,191 	"/>
	<polyline class="st1" points="544.1,210.4 542.7,208.1 539.3,202.2 536.6,197.4 535.9,196.3 532.5,190.3 529.1,184.4 	"/>
	<polyline class="st1" points="542.8,173.9 547.6,178.7 552.5,183.6 557.3,188.4 562.1,193.2 566.9,198 571.8,202.9 576.6,207.7 
		581.4,212.5 586.3,217.4 591.1,222.2 595.9,227 	"/>
	<polyline class="st1" points="553.3,160.2 559.2,163.6 565.2,167 571.1,170.4 577,173.9 582.9,177.3 588.8,180.7 594.7,184.1 
		600.7,187.5 606.6,190.9 612.5,194.4 618.4,197.8 	"/>
	<polyline class="st1" points="559.9,144.2 566.5,146 573.1,147.8 579.7,149.5 586.3,151.3 592.9,153.1 599.5,154.8 606.1,156.6 
		612.7,158.4 619.3,160.1 625.9,161.9 632.5,163.7 	"/>
	<polyline class="st1" points="559.9,110 566.5,108.2 573.1,106.4 579.7,104.7 586.3,102.9 592.9,101.1 599.5,99.3 606.1,97.6 
		612.7,95.8 619.3,94 625.9,92.3 632.6,90.5 	"/>
	<polyline class="st1" points="618.4,56.4 612.5,59.8 606.6,63.2 600.7,66.7 594.7,70.1 588.8,73.5 582.9,76.9 577,80.3 571.1,83.8 
		565.2,87.2 559.2,90.6 553.3,94 	"/>
	<path class="st3" d="M515.3,199.1C515.3,199.1,515.3,199.1,515.3,199.1L515.3,199.1c0-0.3-0.1-0.5-0.1-0.8
		c-0.2-0.9-0.4-1.7-0.7-2.5c0,0,0,0,0,0c0,0,0,0,0,0c0,0,0,0,0,0v0c-0.6-1.6-1.3-3-2.3-4.4v0c-0.4-0.5-0.8-1-1.2-1.5
		c-2.4-2.8-5.6-4.9-9.2-6h0c-1.8-0.6-3.7-0.9-5.7-0.9h0c-2,0-3.9,0.3-5.7,0.9h0c-3.6,1.1-6.8,3.2-9.2,6c-0.4,0.5-0.8,1-1.2,1.5h0
		c-0.9,1.3-1.6,2.7-2.2,4.2c0,0,0,0,0,0c0,0,0,0,0,0v0c-0.3,0.9-0.6,1.8-0.8,2.8c-0.1,0.3-0.1,0.7-0.2,1c0,0,0,0,0,0c0,0,0,0,0,0.1
		c-0.2,1-0.2,2-0.2,3c0,1.2,0.1,2.4,0.3,3.5v0c0.1,0.6,0.3,1.3,0.5,1.9c1.2,4.2,3.8,7.9,7.3,10.4c3.2,2.4,7.2,3.8,11.6,3.8h0
		c4.3,0,8.3-1.4,11.5-3.8c3.5-2.5,6.1-6.2,7.3-10.4c0.2-0.6,0.3-1.3,0.5-1.9v0c0.2-1.2,0.3-2.3,0.3-3.5
		C515.6,201.3,515.5,200.2,515.3,199.1z M493.1,192.8L493.1,192.8c0.9-0.3,1.9-0.4,2.9-0.4c1,0,2,0.2,2.9,0.4
		c4.1,1.3,7.1,5.1,7.1,9.6c0,0.3,0,0.6,0,0.9v0.1c0,0,0,0.1,0,0.1c-0.6,5-4.8,8.9-10,8.9h0c-5.2,0-9.6-4-10-9.2v-0.1c0,0,0,0,0,0
		v-0.1c0-0.2,0-0.5,0-0.7C485.9,197.9,489,194.1,493.1,192.8z"/>
	<path class="st1" d="M480.7,206.9"/>
	<path class="st1" d="M504.2,202.5c0,4.5-3.7,8.2-8.2,8.2c-4.5,0-8.2-3.7-8.2-8.2c0-3.7,2.4-6.8,5.8-7.8v0c0.8-0.2,1.6-0.3,2.4-0.3
		s1.6,0.1,2.4,0.3C501.7,195.7,504.2,198.8,504.2,202.5z"/>
	<line class="st1" x1="493.1" y1="192.8" x2="490.3" y2="183.7"/>
	<line class="st1" x1="501.7" y1="183.7" x2="498.9" y2="192.8"/>
	<circle class="st1" cx="496" cy="127.1" r="9.4"/>
	<line class="st1" x1="496" y1="136.5" x2="496" y2="182.9"/>
	<polyline class="st1" points="505.4,127.1 559.1,127.1 566.2,127.1 573.3,127.1 580.4,127.1 587.6,127.1 594.7,127.1 601.8,127.1 
		608.9,127.1 616,127.1 623.1,127.1 630.2,127.1 637.3,127.1 	"/>
	<line class="st1" x1="496" y1="117.7" x2="496" y2="65.8"/>
	<circle class="st1" cx="496" cy="60.2" r="5.6"/>
	<path class="st3" d="M506,203.3c0,5.5-4.5,10-10,10s-10-4.5-10-10c0-4.4,2.8-8.1,6.8-9.5c1-0.4,2.1-0.5,3.3-0.5
		c1.1,0,2.2,0.2,3.3,0.5C503.2,195.2,506,198.9,506,203.3z"/>
</g>
<line class="st4" x1="727" y1="206.3" x2="727" y2="206.3"/>
<g>
	<path d="M462.9,50.6L462.9,50.6L462.9,50.6C462.9,50.5,462.9,50.6,462.9,50.6z"/>
</g>
<g>
	<path class="st4" d="M785.5,140.7l-20.8,20.8c-1,1-2.7,1.2-4,0.4l0,0c-3.9-2.4-7.1-5.7-9.5-9.5v0c-0.8-1.3-0.6-2.9,0.4-4l20.8-20.8
		c1.2-1.2,3.3-1.2,4.6,0.1l8.5,8.5C786.7,137.4,786.7,139.4,785.5,140.7z"/>
	
		<ellipse transform="matrix(0.7071 -0.7071 0.7071 0.7071 122.7425 585.4545)" class="st4" cx="768.1" cy="144.6" rx="5.5" ry="4.4"/>
	<circle class="st4" cx="768.1" cy="144.6" r="2.7"/>
	<line class="st4" x1="756.1" y1="143.8" x2="768.8" y2="156.5"/>
	<path class="st4" d="M774.9,132.6l-2.3,2.3c-0.5,0.5-1.3,0.5-1.8,0l-0.2-0.2c-0.5-0.5-0.5-1.3,0-1.8l2.3-2.3c0.5-0.5,1.3-0.5,1.8,0
		l0.2,0.2C775.4,131.3,775.4,132.1,774.9,132.6z"/>
	<path class="st4" d="M779,138.5L779,138.5c0.7,0.7,0.9,1.8,0.5,2.7l-0.6,1.3c-0.4,0.9-1.5,1.1-2.2,0.4l0,0
		c-0.1-0.1-0.2-0.2-0.2-0.3c-0.5-0.7-0.6-1.6-0.2-2.4l0.6-1.3c0.3-0.8,1.3-1,2-0.6C778.8,138.4,778.9,138.4,779,138.5z"/>
</g>
<path class="st5" d="M375.2,1.5"/>
<g>
	<path class="st6" d="M688.9,77.6l-36.1-35.5c-1.8-1.8-2.1-4.6-0.8-6.8v0c4.1-6.7,9.7-12.3,16.3-16.5v0c2.2-1.4,5-1.1,6.8,0.6
		l36.1,35.5c2.2,2.1,2.1,5.6-0.1,7.9l-14.4,14.7C694.6,79.7,691.1,79.8,688.9,77.6z"/>
	<ellipse transform="matrix(0.7015 -0.7127 0.7127 0.7015 169.5348 500.3141)" class="st4" cx="682" cy="47.8" rx="7.6" ry="9.5"/>
	<circle class="st4" cx="682" cy="47.8" r="4.6"/>
	<line class="st4" x1="683.1" y1="27.2" x2="661.4" y2="49.2"/>
	<g>
		<path class="st0" d="M702.2,76.1c-0.4,0-0.8-0.2-0.9-0.6l-4.3-9.5l-10.3,1.2c0,0-0.1,0-0.1,0c-0.4,0-0.7-0.2-0.9-0.5
			c-0.2-0.3-0.2-0.8,0.1-1.1l6.1-8.4l-6.2-8.3c-0.2-0.3-0.3-0.7-0.1-1.1c0.2-0.3,0.5-0.5,0.9-0.5c0,0,0.1,0,0.1,0l10.3,1l4.1-9.5
			c0.2-0.4,0.5-0.6,0.9-0.6c0,0,0,0,0,0c0.4,0,0.8,0.2,0.9,0.6l4.3,9.5l10.3-1.2c0,0,0.1,0,0.1,0c0.4,0,0.7,0.2,0.9,0.5
			c0.2,0.3,0.2,0.8-0.1,1.1l-6.1,8.4l6.2,8.3c0.2,0.3,0.3,0.7,0.1,1.1c-0.2,0.3-0.5,0.5-0.9,0.5c0,0-0.1,0-0.1,0l-10.3-1l-4.1,9.5
			C702.9,75.9,702.6,76.1,702.2,76.1C702.2,76.1,702.2,76.1,702.2,76.1z"/>
		<path d="M701.9,39.3l4.6,10.1l11-1.3l-6.5,9l6.6,8.9l-11.1-1.1l-4.4,10.2L697.6,65l-11,1.3l6.5-9l-6.6-8.9l11.1,1.1L701.9,39.3
			 M701.9,37.3C701.9,37.3,701.9,37.3,701.9,37.3c-0.8,0-1.5,0.5-1.8,1.2l-3.8,8.9l-9.6-1c-0.1,0-0.1,0-0.2,0c-0.7,0-1.4,0.4-1.7,1
			c-0.4,0.7-0.3,1.5,0.1,2.2l5.8,7.7l-5.6,7.8c-0.5,0.6-0.5,1.5-0.1,2.2c0.4,0.6,1,1,1.7,1c0.1,0,0.2,0,0.2,0l9.6-1.1l4,8.8
			c0.3,0.7,1,1.2,1.8,1.2c0,0,0,0,0,0c0.8,0,1.5-0.5,1.8-1.2l3.8-8.9l9.6,1c0.1,0,0.1,0,0.2,0c0.7,0,1.4-0.4,1.7-1
			c0.4-0.7,0.3-1.5-0.1-2.2l-5.8-7.7l5.6-7.8c0.5-0.6,0.5-1.5,0.1-2.2c-0.4-0.6-1-1-1.7-1c-0.1,0-0.2,0-0.2,0l-9.6,1.1l-4-8.8
			C703.4,37.8,702.7,37.3,701.9,37.3L701.9,37.3z"/>
	</g>
	<path class="st4" d="M703.3,60l-5.3-5.2c-0.5-0.5-0.5-1.3,0-1.8l1.7-1.7c0.5-0.5,1.3-0.5,1.8,0l5.3,5.2c0.5,0.5,0.5,1.3,0,1.8
		l-1.7,1.7C704.6,60.5,703.8,60.5,703.3,60z"/>
</g>
<g>
	<path class="st2" d="M142.2,168.5c-0.1,0-1.8,0.2-3.9,0.6c-1.9,0.4-4.2,1.1-6.3,2.1c-1.1,0.5-2.2,1.2-3.2,1.9
		c-0.2,0.2-0.3,0.5-0.1,0.8l0,0.1c0.1,0.1,0.2,0.1,0.3,0.2c0.1,0,0.3,0,0.4-0.1c2.1-1.6,4.9-2.7,7.3-3.3c3-0.8,5.5-1,5.5-1.1
		c0.3,0,0.5-0.3,0.5-0.6C142.7,168.7,142.5,168.5,142.2,168.5z M154.8,165.7c-0.2-0.2-0.6-0.2-0.8,0c0,0-1.1,1.2-2.9,2.6l0,0
		c-2.2,1.8-5.6,4.1-9.6,5.5c-1.9,0.7-4,1.1-6.1,1.2c-0.3,0-0.5,0.3-0.5,0.6c0,0.1,0.1,0.3,0.2,0.4c0.1,0.1,0.2,0.2,0.4,0.2
		c1.5-0.1,3-0.3,4.4-0.7c2.5-0.6,4.8-1.7,6.9-2.8l0,0c4.8-2.7,7.9-6,8.1-6.3C155,166.2,155,165.9,154.8,165.7z M172.9,187.4
		c-0.2-1.1-1.5-4.4-2.8-7.4c-0.4-1-0.9-2.1-1.3-3c-0.6-1.2-1-2.2-1.3-2.7c-0.3-0.5-0.9-1.4-1.6-2.2c-0.6-0.7-1.3-1.5-1.9-2.2
		c-0.1-0.1-0.1-0.2-0.2-0.2l-2-0.5c0.4,0.4,0.8,0.9,1.4,1.5c0.6,0.7,1.3,1.5,1.9,2.2c0.6,0.8,1.2,1.5,1.5,2c0.3,0.5,0.8,1.6,1.4,3
		c0.4,0.9,0.8,1.9,1.3,3c1.2,2.9,2.4,5.8,2.6,6.8c0.3,1.4,0.1,3.7-0.7,4.9c-0.3,0.5-0.7,0.8-1.1,0.8c-1.7,0.3-3.4-2.4-4-4.4
		c-0.4-1.3-0.9-2.8-1.2-3.7c0-0.1,0-0.1,0-0.2l0.1-0.1c0.6-1,2-1.9,2.4-2.1c0,0,0.1-0.1,0.1-0.1c0.1,0,0.2-0.1,0.2-0.2l0,0
		c0.1-0.2,0.1-0.3,0-0.5c-0.2-0.3-0.5-0.4-0.8-0.2c-0.1,0.1-1.6,1-2.5,2.1c-0.2-0.3-0.6-0.9-0.9-1.4c-0.3-0.5-0.7-1.1-0.8-1.5
		c-0.4-0.9-1-2.3-1.2-2.8c0.7-0.9,2.4-2,3-2.3c0.3-0.1,0.4-0.5,0.2-0.8c-0.1-0.3-0.5-0.4-0.8-0.2c-0.1,0-1.2,0.6-2.2,1.5l0,0
		c-0.4,0.3-0.7,0.6-1,1c-0.5-0.4-1.2-1.1-2.1-1.9c-1.7-1.5-3.8-3.4-5.1-4.9l-0.1-0.1c0,0-0.1,0-0.1-0.1c0,0,0-0.1-0.1-0.1
		c-0.2-0.2-0.6-0.3-0.8-0.1c-0.2,0.2-0.3,0.6-0.1,0.8c0.1,0.1,0.2,0.2,0.2,0.2l4.4,5.9l1.4,1.9c0.1,0.1,0.2,0.3,0.3,0.4v0
		c0.5,0.8,1.1,2,1.1,2.7c0,0.2,0,0.6,0.1,1.1c0.1,0.7,0.1,1.7,0.2,2.8c0.1,1.2,0.1,2.7,0,4.2c-0.1,3.1-0.5,6.4-1.7,7.9
		c-1.1,1.5-2.3,2.2-3.3,1.9c-0.7-0.2-1.1-0.8-1.2-1.3c-0.1-0.5-0.2-1.2-0.3-2.1c-0.1-1.4-0.1-3,0.1-4.3c0.1-0.7,0.2-1.3,0.4-1.8
		c0.6-0.3,1.4-0.6,2.1-0.8c0.7-0.2,1.3-0.3,1.3-0.3c0.3-0.1,0.5-0.3,0.4-0.6c0-0.2-0.2-0.3-0.4-0.4c-0.1,0-0.2,0-0.3,0
		c-0.1,0-2,0.4-3.4,1c-0.3-1-0.8-2.8-1-4.3c-0.1-0.5-0.1-0.9-0.1-1.3c1-0.9,2.3-1.5,3.1-1.7c0.4-0.2,0.7-0.2,0.7-0.2
		c0.3-0.1,0.5-0.3,0.4-0.6c0-0.1,0-0.1-0.1-0.2c-0.1-0.2-0.4-0.3-0.6-0.2c-0.1,0-2.1,0.5-3.9,1.9c-0.2-0.2-0.3-0.4-0.5-0.7
		c-2-2.5-5-6.3-5-6.4c-0.2-0.2-0.5-0.3-0.8-0.1c-0.2,0.2-0.3,0.5-0.1,0.8c0,0,1.3,1.7,2.7,3.5c0.7,1.4,1.3,3.1,1.3,3.7v0.1
		c0,0.1,0,0.2,0,0.3c-0.1,0.9-0.2,2.8-0.3,4.4c-0.1,1.1-0.2,2.1-0.2,2.3c-0.1,0.3-0.7,1.8-2.2,2.5l-0.2,0.1c-1,0.4-2.3,1-3.4,1.2h0
		c-0.9,0.2-1.7,0.1-2-0.5c-0.2-0.3-0.3-0.7-0.4-1.1c0-0.5,0-1.1,0.1-1.7c0.3-1.1,0.8-1.9,1.2-2.1c0.4-0.2,0.6-0.4,0.8-0.6
		c0.6-0.2,1.6-0.2,2.3-0.1c0.3,0,0.5,0.1,0.7,0.1c0.3,0.1,0.6-0.1,0.7-0.4c0.1-0.3-0.1-0.6-0.4-0.7l0,0c-0.1,0-1.4-0.3-2.6-0.2
		c-0.2-0.8-0.4-2-0.2-2.5l0.2-0.4c1.1-0.6,2.6-0.2,2.6-0.2c0.3,0.1,0.6-0.1,0.7-0.4c0.1-0.3-0.1-0.6-0.4-0.7c-0.1,0-2.2-0.5-3.8,0.6
		c-0.3-0.4-0.8-1-1.1-1.5c-0.6-0.9-1.3-1.9-1.9-2.6c-0.4-0.5-0.8-0.9-1.2-1.1c-0.4-0.3-0.8-0.1-1,0c-0.7,0.4-0.8,1.8-0.9,4.1v0
		c0,1.3-0.1,2.8-0.3,3.5c-0.4,1-1.1,2.3-2.3,2.8c-0.7,0.3-1.5,0.2-2.4-0.2c-0.2-0.1-0.5-0.2-0.7-0.3c-1.2-0.7-1.4-1.4-1.4-2.2
		c0-0.1,0-0.3,0-0.4c0-0.2,0-0.4,0.1-0.5l0-0.2c0.1-0.8,0.8-1.6,1.2-1.9c0.5-0.3,1.2-0.4,1.8-0.4c0.7,0,1.2,0.2,1.2,0.2
		c0.3,0.1,0.6,0,0.7-0.3c0.1-0.3,0-0.6-0.3-0.7c0,0-0.3-0.1-0.6-0.2h0c-0.7-0.2-1.8-0.3-2.8,0.1c-0.3-0.9-0.9-2.5-1.5-3.3l-0.2-0.2
		l-0.2-0.3c-0.4-0.6-1-1.3-1.6-2.1c-0.7-0.8-1.4-1.6-2.3-2.4c-0.5-0.5-1.1-0.9-1.6-1.3c-1.4-1.1-2.8-2.2-4.4-4.3
		c-1.4-1.9-3.4-6-4.7-8.8c-0.9-1.8-1.3-2.7-1.5-3c-0.1-0.1-4.8-5-10.9-11.2l-0.8,0.8c3,3,4.9,5.1,6.1,6.3v0c2.8,2.8,4.6,4.6,4.7,4.7
		c0.2,0.2,0.8,1.5,1.4,2.8c1.4,3,3.3,7,4.8,9c1.7,2.2,3.2,3.4,4.7,4.6c0.5,0.4,1,0.8,1.5,1.3c0.9,0.7,1.6,1.5,2.2,2.3
		c0.6,0.7,1.1,1.4,1.5,2l0.3,0.4l0.1,0.1c0.6,0.8,1.2,2.6,1.5,3.3c-0.4,0.5-1.2,1.4-1.3,2.4l0,0.2c-0.1,0.5-0.1,1.1,0,1.8
		c0.1,0.6,0.4,1.2,0.9,1.8c0.2,0.2,0.4,0.4,0.8,0.6c0.3,0.2,0.6,0.4,1,0.5c1.2,0.5,2.3,0.6,3.3,0.2c1.5-0.6,2.4-2.2,2.9-3.4
		c0.3-0.9,0.4-2.4,0.4-3.9c0-0.3,0-0.8,0-1.1c0-0.8,0.1-1.6,0.2-1.9c0.2,0.2,0.5,0.5,0.9,0.8c0.6,0.7,1.2,1.7,1.8,2.5
		c0.7,1,1.1,1.6,1.5,2c-0.2,0.9,0.1,2.2,0.2,2.7c-0.1,0.1-0.3,0.4-0.9,0.7c-0.7,0.4-1.3,1.5-1.6,2.8c-0.2,1-0.2,2,0,2.9
		c0.1,0.3,0.2,0.6,0.3,0.8c0.4,0.7,1.1,1,1.8,1.1h0c1.6,0.2,3.5-0.7,5-1.3l0.2-0.1c2.2-0.9,2.9-3.1,2.9-3.2l0-0.1
		c0,0,0.1-1.9,0.3-3.7v0c0.1-1.5,0.2-3,0.3-3.4c0-0.2,0-0.5-0.1-0.8c0,0,0,0,0-0.1c0,0,0,0,0,0c0.2,0.3,0.4,0.5,0.6,0.8
		c0,0.7,0,1.6,0.2,2.4c0.2,1.4,0.6,2.7,0.9,3.7c0,0.2,0.1,0.3,0.1,0.5c-0.3,1-0.5,2.1-0.6,3.3c-0.1,1.3-0.1,2.7,0.1,4.2
		c0.1,0.4,0.1,0.8,0.2,1.2c0.1,0.6,0.4,1.1,0.8,1.5c0.3,0.3,0.8,0.6,1.2,0.7c0.8,0.2,2.5,0.2,4.5-2.3c1.5-2,1.9-6,1.9-9.7
		c0-1.5,0-2.9-0.1-4.1c0-0.7-0.1-1.3-0.1-1.8c-0.1-0.5-0.1-0.9-0.1-1c0-1.1-1-2.8-1.4-3.5c-0.1-0.1-0.2-0.2-0.2-0.3l-1.5-2.1
		l-0.2-0.3c0.1,0.1,0.2,0.2,0.3,0.2c0.9,0.8,1.7,1.5,2.2,1.9c0.2,0.1,0.3,0.3,0.4,0.3c0.2,0.5,0.9,2,1.3,3c0.2,0.5,0.7,1.2,1,1.8
		c0.5,0.7,1,1.3,1.1,1.6c0.1,0.2,0.2,0.6,0.4,1.2v0c0.3,0.9,0.6,2.1,1,3.2c0.4,1.3,1.2,2.9,2.3,3.9c0.8,0.8,1.9,1.4,3,1.1
		c0.7-0.1,1.3-0.6,1.8-1.3C173,191.6,173.3,189,172.9,187.4z M132,171.2c-1.1,0.5-2.2,1.2-3.2,1.9c-0.2,0.2-0.3,0.5-0.1,0.8l0,0.1
		c0.1,0.1,0.2,0.1,0.3,0.2c0.1,0,0.3,0,0.4-0.1c2.1-1.6,4.9-2.7,7.3-3.3l1.5-1.5C136.4,169.5,134.1,170.2,132,171.2z M154.8,165.7
		c-0.2-0.2-0.6-0.2-0.8,0c0,0-1.1,1.2-2.9,2.6l0,0c-2.2,1.8-5.6,4.1-9.6,5.5c-1.9,0.7-4,1.1-6.1,1.2c-0.3,0-0.5,0.3-0.5,0.6
		c0,0.1,0.1,0.3,0.2,0.4c0.1,0.1,0.2,0.2,0.4,0.2c1.5-0.1,3-0.3,4.4-0.7c2.5-0.6,4.8-1.7,6.9-2.8l0,0c4.8-2.7,7.9-6,8.1-6.3
		C155,166.2,155,165.9,154.8,165.7z M142.2,168.5c-0.1,0-1.8,0.2-3.9,0.6c-1.9,0.4-4.2,1.1-6.3,2.1c-1.1,0.5-2.2,1.2-3.2,1.9
		c-0.2,0.2-0.3,0.5-0.1,0.8l0,0.1c0.1,0.1,0.2,0.1,0.3,0.2c0.1,0,0.3,0,0.4-0.1c2.1-1.6,4.9-2.7,7.3-3.3c3-0.8,5.5-1,5.5-1.1
		c0.3,0,0.5-0.3,0.5-0.6C142.7,168.7,142.5,168.5,142.2,168.5z M142.2,168.5c-0.1,0-1.8,0.2-3.9,0.6c-1.9,0.4-4.2,1.1-6.3,2.1
		c-1.1,0.5-2.2,1.2-3.2,1.9c-0.2,0.2-0.3,0.5-0.1,0.8l0,0.1c0.1,0.1,0.2,0.1,0.3,0.2c0.1,0,0.3,0,0.4-0.1c2.1-1.6,4.9-2.7,7.3-3.3
		c3-0.8,5.5-1,5.5-1.1c0.3,0,0.5-0.3,0.5-0.6C142.7,168.7,142.5,168.5,142.2,168.5z M154.8,165.7c-0.2-0.2-0.6-0.2-0.8,0
		c0,0-1.1,1.2-2.9,2.6l0,0c-2.2,1.8-5.6,4.1-9.6,5.5c-1.9,0.7-4,1.1-6.1,1.2c-0.3,0-0.5,0.3-0.5,0.6c0,0.1,0.1,0.3,0.2,0.4
		c0.1,0.1,0.2,0.2,0.4,0.2c1.5-0.1,3-0.3,4.4-0.7c2.5-0.6,4.8-1.7,6.9-2.8l0,0c4.8-2.7,7.9-6,8.1-6.3
		C155,166.2,155,165.9,154.8,165.7z M142.2,168.5c-0.1,0-1.8,0.2-3.9,0.6c-1.9,0.4-4.2,1.1-6.3,2.1c-1.1,0.5-2.2,1.2-3.2,1.9
		c-0.2,0.2-0.3,0.5-0.1,0.8l0,0.1c0.1,0.1,0.2,0.1,0.3,0.2c0.1,0,0.3,0,0.4-0.1c2.1-1.6,4.9-2.7,7.3-3.3c3-0.8,5.5-1,5.5-1.1
		c0.3,0,0.5-0.3,0.5-0.6C142.7,168.7,142.5,168.5,142.2,168.5z M154.8,165.7c-0.2-0.2-0.6-0.2-0.8,0c0,0-1.1,1.2-2.9,2.6l0,0
		c-2.2,1.8-5.6,4.1-9.6,5.5c-1.9,0.7-4,1.1-6.1,1.2c-0.3,0-0.5,0.3-0.5,0.6c0,0.1,0.1,0.3,0.2,0.4c0.1,0.1,0.2,0.2,0.4,0.2
		c1.5-0.1,3-0.3,4.4-0.7c2.5-0.6,4.8-1.7,6.9-2.8l0,0c4.8-2.7,7.9-6,8.1-6.3C155,166.2,155,165.9,154.8,165.7z"/>
	<g>
		<path class="st3" d="M101.7,223c-0.4,0.4,0,1.6,1,2.6c1,1,2.2,1.5,2.6,1"/>
		<path class="st3" d="M98,219.3c-0.4,0.4,0,1.6,1,2.6c1,1,2.2,1.5,2.6,1"/>
		<g>
			<ellipse transform="matrix(0.7071 -0.7071 0.7071 0.7071 -45.988 168.984)" class="st3" cx="181" cy="140" rx="1.1" ry="2.6"/>
			
				<ellipse transform="matrix(0.7071 -0.7071 0.7071 0.7071 -47.4972 172.6276)" class="st3" cx="184.6" cy="143.6" rx="1.1" ry="2.6"/>
			<path class="st3" d="M177.4,156.5c-1.1,1.1-4.1,0-6.7-2.6c-1.5-1.5-2.5-3.1-2.9-4.4c-0.3-1-0.2-1.8,0.3-2.3
				c0.5-0.5,1.3-0.5,2.3-0.3l7.3,7.3C178,155.2,177.9,156,177.4,156.5z"/>
			<path class="st3" d="M177.4,156.5l-59.4,59.4c-0.5,0.5-1.3,0.5-2.3,0.3c-1.3-0.4-2.9-1.4-4.4-2.9c-2.6-2.6-3.7-5.6-2.6-6.7
				l59.4-59.4c-0.5,0.5-0.5,1.3-0.3,2.3c0.4,1.3,1.4,2.9,2.9,4.4C173.3,156.5,176.3,157.6,177.4,156.5z"/>
			<polyline class="st1" points="179.2,138.2 170.4,146.9 167.9,149.5 			"/>
			<line class="st1" x1="182.8" y1="141.8" x2="170.7" y2="153.9"/>
			<line class="st1" x1="186.5" y1="145.5" x2="175.4" y2="156.5"/>
			<polyline class="st1" points="115.8,216.1 114.1,217.8 105.3,226.6 			"/>
			<line class="st1" x1="101.7" y1="223" x2="111.4" y2="213.3"/>
			<line class="st1" x1="98" y1="219.3" x2="108.5" y2="208.9"/>
			<line class="st1" x1="108.8" y1="206.6" x2="108.4" y2="207"/>
			<line class="st1" x1="118.1" y1="215.9" x2="117.7" y2="216.3"/>
		</g>
	</g>
	<path class="st2" d="M238.8,89.7c-0.3,0-0.6,0.2-0.6,0.5c0,0-0.1,1.5-0.6,3.6l1.4-1.4c0.2-1.2,0.3-2,0.3-2.1
		C239.4,90,239.2,89.7,238.8,89.7z M242.2,77.7c-0.2-0.2-0.6-0.2-0.8,0c-0.4,0.3-9.3,8.8-9.8,19.4c0,0.2,0.1,0.3,0.2,0.4
		c0.1,0.1,0.2,0.2,0.4,0.2c0.3,0,0.6-0.2,0.6-0.5c0.4-10.1,9.3-18.5,9.4-18.6C242.4,78.3,242.4,77.9,242.2,77.7z M270.6,138.1
		c-0.1-0.1-0.2-0.2-0.3-0.3c-3.3-3.3-7.1-7.1-10.4-10.4v0c-4.3-4.3-7.8-7.7-8-7.9c-0.3-0.2-1.2-0.7-3-1.5c-2.7-1.3-6.9-3.3-8.8-4.7
		c-1.8-1.3-2.9-2.6-3.8-3.8c-0.2-0.2-0.4-0.5-0.5-0.7c-0.4-0.5-0.9-1.1-1.3-1.6c-1.5-1.7-3.3-3.1-4.5-3.9l-0.5-0.3
		c-0.2-0.2-0.4-0.3-0.7-0.4c-0.9-0.5-2-0.9-2.7-1.1c0.6-1.5,0-3.3-0.1-3.4c-0.1-0.3-0.4-0.4-0.7-0.3c-0.3,0.1-0.5,0.4-0.3,0.7
		c0,0,0.6,1.9-0.1,3c-0.3,0.3-1.2,1-1.9,1.1l-0.2,0c-1.3,0.2-2.5,0.3-3.5-2c-0.4-0.9-0.5-1.7-0.2-2.4c0.5-1.1,1.8-1.8,2.8-2.2
		c0.7-0.3,2.2-0.3,3.5-0.3c2.4-0.1,3.7-0.2,4.1-0.9c0.1-0.2,0.2-0.5,0-1c-0.5-0.9-2.2-2.1-3.7-3.1c-0.5-0.3-1.1-0.8-1.5-1.1
		c1.1-1.6,0.6-3.7,0.6-3.8c0-0.3-0.4-0.5-0.7-0.4c-0.3,0.1-0.5,0.4-0.4,0.7c0,0,0.4,1.5-0.2,2.6L223,89c-0.5,0.2-1.7,0-2.5-0.2
		c0.1-1.2-0.2-2.6-0.2-2.6c-0.1-0.3-0.4-0.5-0.7-0.4c-0.3,0.1-0.5,0.4-0.4,0.7c0.1,0.5,0.4,2.1,0.1,3c-0.2,0.2-0.4,0.5-0.6,0.9
		c-0.2,0.4-1,0.9-2.1,1.1c-1.1,0.3-2.1,0.2-2.8-0.2c-0.4-0.2-0.5-0.6-0.6-1.1c-0.1-1.2,0.7-3.1,1.2-4.3l0.1-0.2
		c0.7-1.5,2.2-2.1,2.4-2.2c0.4,0,1.8-0.1,3.3-0.3c1.6-0.1,3.3-0.2,3.8-0.3h0.1c0.6,0,2.3,0.7,3.7,1.3c1.8,1.4,3.5,2.7,3.5,2.7
		c0.2,0.2,0.6,0.1,0.8-0.1c0.2-0.3,0.1-0.6-0.1-0.8c0,0-4.6-3.5-7.1-5.5c1.3-1.7,1.8-3.6,1.9-3.9v0c0,0,0,0,0,0
		c0-0.3-0.1-0.6-0.4-0.7c-0.3-0.1-0.6,0.1-0.6,0.4c0,0-0.3,1.1-0.9,2.2c-0.3,0.5-0.6,1-1,1.5c-0.2,0-0.3,0-0.5,0
		c-1.6,0-3.9-0.7-5.1-1.1c0.6-1.4,1-3.3,1-3.4c0.1-0.3-0.1-0.6-0.4-0.7c-0.3-0.1-0.6,0.1-0.7,0.4c0,0-0.5,2.2-1.1,3.4
		c-1.7,0.7-5.3,0.7-7.4,0.4c-0.3-0.1-0.5-0.1-0.8-0.2c-0.5-0.1-1.1-0.5-1.3-1.2c-0.2-1,0.4-2.2,1.9-3.3c1.3-1,3.8-1.4,6.4-1.6
		c3.3-0.2,6.9,0,8.5,0.1c0.6,0,1,0.1,1.1,0.1c0.8,0,2.3,0.8,3.1,1.4l0.1,0.1l7.7,5.7c0.1,0.1,0.2,0.2,0.2,0.2
		c0.2,0.2,0.6,0.2,0.8-0.1c0.2-0.2,0.2-0.6-0.1-0.8c0,0-0.1,0-0.1-0.1c0,0,0-0.1-0.1-0.1l-0.1-0.1c-2.2-1.9-5.1-5.2-6.4-6.8
		c-0.1-0.2-0.3-0.3-0.4-0.4c1.3-1.1,2.4-3.2,2.4-3.3c0,0,0-0.1,0-0.1c0.1-0.2,0-0.5-0.2-0.7c-0.3-0.1-0.6,0-0.8,0.2
		c-0.3,0.6-1.4,2.3-2.3,3c-0.6-0.3-1.9-0.8-2.8-1.2c-0.8-0.3-2.2-1.3-2.8-1.8c1.1-0.9,2.1-2.4,2.1-2.5c0.2-0.3,0.1-0.6-0.2-0.8
		c-0.3-0.2-0.6-0.1-0.8,0.2c0,0-1.1,1.8-2.2,2.5l-0.1,0.1c-0.3-0.1-0.8-0.2-1.3-0.4c-0.8-0.2-1.8-0.5-2.6-0.8
		c-1.9-0.6-4.7-2.3-4.3-4c0.1-0.4,0.4-0.8,0.8-1.1c1.2-0.8,3.5-1,4.9-0.7c0.8,0.2,3.2,1.1,5.8,2.1c2.3,0.9,4.6,2,6.1,2.7
		c0.4,0.2,0.7,0.4,0.9,0.5c0.6,0.3,1.5,1.1,2.5,1.9c1.2,1,2.5,2.1,3.2,2.8l-0.5-1.9c-0.6-0.5-1.3-1.1-1.9-1.7c-1-0.9-2-1.7-2.7-2
		c-0.3-0.2-0.9-0.5-1.6-0.8c-1.4-0.6-3.2-1.4-5.1-2.2c-2.7-1.1-5.4-2.2-6.4-2.4c-1.6-0.3-4.2-0.1-5.8,0.9c-0.7,0.5-1.2,1.1-1.3,1.8
		c-0.2,1.1,0.3,2.1,1.2,3c1.1,1.1,2.6,1.9,3.9,2.3c0.7,0.2,1.4,0.4,2.1,0.7c1.1,0.3,2,0.6,2.3,0.7c0.4,0.3,2.3,1.7,3.4,2.2
		c1,0.4,2.5,1.1,3,1.3c0.1,0.2,0.4,0.5,0.7,0.9c0.4,0.5,1,1.2,1.7,2l-2.1-1.6l-0.2-0.2c-0.3-0.2-2.4-1.6-3.8-1.6c-0.2,0-0.5,0-1-0.1
		c-1.6-0.1-4.5-0.3-7.4-0.2c-3.2,0.1-6.5,0.6-8.3,1.9c-2.5,1.9-2.5,3.6-2.3,4.5c0.1,0.5,0.4,0.9,0.7,1.2c0.4,0.4,0.9,0.6,1.5,0.8
		c0,0,0,0,0,0c3.1,0.7,6.3,0.4,8.7-0.3c0.1,0,0.3,0.1,0.5,0.1c1.1,0.3,2.8,0.8,4.4,1c0.6,0.1,1.2,0.1,1.7,0.1
		c0.2,0.2,0.5,0.4,0.8,0.7c-0.3-0.1-0.7-0.2-0.9-0.1c-0.3,0-1.3,0.1-2.5,0.2c-2.1,0.2-4.6,0.4-4.6,0.4l-0.1,0
		c-0.1,0-2.3,0.7-3.2,2.9l-0.1,0.2c-0.7,1.7-1.8,4.1-1.2,5.7c0.2,0.4,0.5,0.8,0.9,1.1c0.9,0.6,2.3,0.7,3.7,0.4
		c1.3-0.3,2.3-0.9,2.8-1.6c0.3-0.6,0.6-0.8,0.7-0.9c0.5,0.2,1.8,0.4,2.7,0.2c0.4,0.4,1,0.8,2,1.5c1.2,0.8,2.8,1.9,3.3,2.6
		c-0.5,0.2-2,0.3-3.1,0.3c-1.5,0-3,0.1-3.9,0.4c-1.2,0.5-2.8,1.3-3.4,2.9c-0.4,1-0.3,2.1,0.2,3.3c0.4,0.8,0.8,1.4,1.2,1.8
		c1.2,1.2,2.5,1,3.5,0.9l0.2,0c1-0.1,1.9-0.9,2.4-1.3c0.5,0.2,1.6,0.5,2.5,1c0.3,0.2,0.6,0.3,0.8,0.5l0.5,0.4
		c1.2,0.8,2.9,2.1,4.3,3.8c0.5,0.5,0.9,1,1.3,1.5c0.2,0.3,0.4,0.5,0.6,0.8c1,1.2,2.1,2.5,3.9,3.9c2,1.5,6,3.4,9,4.8
		c1.3,0.6,2.6,1.2,2.8,1.4c0.2,0.1,3.7,3.6,8.1,8c3.5,3.5,7.6,7.6,10.9,10.9l1.2,1.2l0.8-0.8L270.6,138.1z M242.2,77.7
		c-0.2-0.2-0.6-0.2-0.8,0c-0.4,0.3-9.3,8.8-9.8,19.4c0,0.2,0.1,0.3,0.2,0.4c0.1,0.1,0.2,0.2,0.4,0.2c0.3,0,0.6-0.2,0.6-0.5
		c0.4-10.1,9.3-18.5,9.4-18.6C242.4,78.3,242.4,77.9,242.2,77.7z M238.8,89.7c-0.3,0-0.6,0.2-0.6,0.5c0,0-0.1,1.5-0.6,3.6l1.4-1.4
		c0.2-1.2,0.3-2,0.3-2.1C239.4,90,239.2,89.7,238.8,89.7z M242.2,77.7c-0.2-0.2-0.6-0.2-0.8,0c-0.4,0.3-9.3,8.8-9.8,19.4
		c0,0.2,0.1,0.3,0.2,0.4c0.1,0.1,0.2,0.2,0.4,0.2c0.3,0,0.6-0.2,0.6-0.5c0.4-10.1,9.3-18.5,9.4-18.6
		C242.4,78.3,242.4,77.9,242.2,77.7z M238.8,89.7c-0.3,0-0.6,0.2-0.6,0.5c0,0-0.1,1.5-0.6,3.6l1.4-1.4c0.2-1.2,0.3-2,0.3-2.1
		C239.4,90,239.2,89.7,238.8,89.7z M242.2,77.7c-0.2-0.2-0.6-0.2-0.8,0c-0.4,0.3-9.3,8.8-9.8,19.4c0,0.2,0.1,0.3,0.2,0.4
		c0.1,0.1,0.2,0.2,0.4,0.2c0.3,0,0.6-0.2,0.6-0.5c0.4-10.1,9.3-18.5,9.4-18.6C242.4,78.3,242.4,77.9,242.2,77.7z M238.8,89.7
		c-0.3,0-0.6,0.2-0.6,0.5c0,0-0.1,1.5-0.6,3.6c-0.6,2.8-1.7,6.5-3.8,9.2c-0.2,0.2-0.1,0.5,0.1,0.7l0.1,0c0.2,0.2,0.6,0.2,0.8-0.1
		c2.7-3.5,3.8-8.5,4.3-11.3c0.2-1.2,0.3-2,0.3-2.1C239.4,90,239.2,89.7,238.8,89.7z M242.2,77.7c-0.2-0.2-0.6-0.2-0.8,0
		c-0.4,0.3-9.3,8.8-9.8,19.4c0,0.2,0.1,0.3,0.2,0.4c0.1,0.1,0.2,0.2,0.4,0.2c0.3,0,0.6-0.2,0.6-0.5c0.4-10.1,9.3-18.5,9.4-18.6
		C242.4,78.3,242.4,77.9,242.2,77.7z M238.8,89.7c-0.3,0-0.6,0.2-0.6,0.5c0,0-0.1,1.5-0.6,3.6c-0.6,2.8-1.7,6.5-3.8,9.2
		c-0.2,0.2-0.1,0.5,0.1,0.7l0.1,0c0.2,0.2,0.6,0.2,0.8-0.1c2.7-3.5,3.8-8.5,4.3-11.3c0.2-1.2,0.3-2,0.3-2.1
		C239.4,90,239.2,89.7,238.8,89.7z M238.8,89.7c-0.3,0-0.6,0.2-0.6,0.5c0,0-0.1,1.5-0.6,3.6c-0.6,2.8-1.7,6.5-3.8,9.2
		c-0.2,0.2-0.1,0.5,0.1,0.7l0.1,0c0.2,0.2,0.6,0.2,0.8-0.1c2.7-3.5,3.8-8.5,4.3-11.3c0.2-1.2,0.3-2,0.3-2.1
		C239.4,90,239.2,89.7,238.8,89.7z M242.2,77.7c-0.2-0.2-0.6-0.2-0.8,0c-0.4,0.3-9.3,8.8-9.8,19.4c0,0.2,0.1,0.3,0.2,0.4
		c0.1,0.1,0.2,0.2,0.4,0.2c0.3,0,0.6-0.2,0.6-0.5c0.4-10.1,9.3-18.5,9.4-18.6C242.4,78.3,242.4,77.9,242.2,77.7z M242.2,77.7
		c-0.2-0.2-0.6-0.2-0.8,0c-0.4,0.3-9.3,8.8-9.8,19.4c0,0.2,0.1,0.3,0.2,0.4c0.1,0.1,0.2,0.2,0.4,0.2c0.3,0,0.6-0.2,0.6-0.5
		c0.4-10.1,9.3-18.5,9.4-18.6C242.4,78.3,242.4,77.9,242.2,77.7z M238.8,89.7c-0.3,0-0.6,0.2-0.6,0.5c0,0-0.1,1.5-0.6,3.6
		c-0.6,2.8-1.7,6.5-3.8,9.2c-0.2,0.2-0.1,0.5,0.1,0.7l0.1,0c0.2,0.2,0.6,0.2,0.8-0.1c2.7-3.5,3.8-8.5,4.3-11.3
		c0.2-1.2,0.3-2,0.3-2.1C239.4,90,239.2,89.7,238.8,89.7z"/>
	<path class="st1" d="M277.5,68.4c-13.8,13.8-35.1-7.6-21.4-21.4"/>
	<path class="st1" d="M281.2,63.1c-1.4,14.5-4.9,28.7-10.2,42.2c-0.2,0.4-0.3,0.8-0.5,1.2"/>
	<path class="st1" d="M259.9,127.5c-0.2,0.3-0.4,0.7-0.6,1c-9.1,14.5-20.6,27-32.8,39.2c-32,32-18.1,18.1-33.7,33.7l-33,33
		c-12.8,12.4-34.6,5.4-37.1-11.7"/>
	<path class="st1" d="M286.1,59.8l-31.5,31.5l-4.5,4.5l-0.9,0.9l-3.4,3.4l-1.2,1.2l-6.2,6.2l-79.5,79.5l-1.5,1.5l-7.5,7.5l-0.8,0.8
		L136.9,209l-14.2,14.2l-7.8,7.8l-4,4c-5.9,5.9-15.5,5.9-21.4,0c-5.9-5.9-5.9-15.5,0-21.4l26-26l14.6-14.6l1-1l6.4-6.4l1.1-1.1l4-4
		l2.4-2.4l2.9-2.9l65.9-65.9l9.7-9.7l1.4-1.4l6.4-6.4l2.3-2.3l6.3-6.3l3.5-3.5l0.1-0.1L256.2,47l8.6-8.6c-5.9,5.9-5.9,15.5,0,21.4
		C270.6,65.7,280.2,65.7,286.1,59.8z"/>
	<path class="st1" d="M136.9,209c-5.9,5.9-15.5,5.9-21.4,0c-5.9-5.9-5.9-15.5,0-21.4"/>
	
		<ellipse transform="matrix(0.2298 -0.9732 0.9732 0.2298 164.3527 305.8847)" class="st1" cx="275.4" cy="49.1" rx="15.1" ry="15.1"/>
	<path class="st1" d="M118.8,227.8c-5.9,5.9-15.5,5.9-21.4,0c-5.9-5.9-5.9-15.5,0-21.4"/>
	<path class="st0" d="M288.7,122.8c-1.6-1.5-3.5-3.1-5.4-4.8c-0.9-0.8-1.8-1.6-2.7-2.4c-1.6-1.4-3.1-2.8-4.6-4.2
		c-0.1-0.1-0.2-0.2-0.4-0.3c-1-0.9-1.9-1.7-2.8-2.5c0,0,0,0,0,0c-0.2-0.2-0.5-0.4-0.7-0.6c-0.4-0.4-0.9-0.8-1.3-1.2
		c-0.2-0.2-0.4-0.4-0.7-0.6c-0.4-0.4-0.9-0.8-1.2-1.2c-0.3-0.3-0.6-0.5-0.8-0.8c-0.1-0.1-0.2-0.2-0.3-0.4c-0.1-0.1-0.2-0.2-0.3-0.3
		c-0.1-0.1-0.2-0.2-0.3-0.3c-0.1-0.1-0.2-0.2-0.3-0.3c-0.1-0.1-0.2-0.2-0.2-0.2c0-0.1-0.1-0.1-0.1-0.1c0,0,0,0,0,0
		c0,0.1,0,0.2-0.1,0.3c-0.1,0.3-0.1,0.6-0.2,0.9c-0.1,0.5-0.3,1-0.5,1.5c-0.2,0.3-0.3,0.7-0.5,1.1c-0.1,0.3-0.3,0.5-0.5,0.8
		c0,0,0,0,0,0c0,0.1-0.1,0.2-0.1,0.2c-0.1,0.1-0.1,0.2-0.2,0.3c-0.7,1-1.5,2-2.6,2.9c0,0-0.1,0-0.1,0c-0.1,0-0.2,0.1-0.2,0.1
		c-0.1,0-0.1,0-0.2,0c0,0-0.1,0-0.2-0.1c0,0,0,0-0.1,0v0c0,0,0,0,0,0c0,0-0.1-0.1-0.1-0.1c0-0.1-0.1-0.1,0-0.2c0,0,0,0,0-0.1
		c0,0,0-0.1,0-0.1c0,0,0,0,0,0c0,0,0-0.1,0.1-0.1c0,0,0.1-0.1,0.1-0.1c0.4-0.3,0.7-0.6,1-0.9c0.1-0.1,0.2-0.2,0.3-0.3
		c0.2-0.2,0.4-0.5,0.6-0.8c0.1-0.2,0.3-0.4,0.4-0.6c0.1-0.2,0.2-0.4,0.3-0.5c0.1-0.1,0.1-0.3,0.2-0.4c0,0,0-0.1,0-0.1
		c0,0,0-0.1,0-0.1c0.1-0.2,0.2-0.3,0.3-0.5c0.2-0.4,0.3-0.8,0.5-1.2c0.1-0.2,0.2-0.4,0.2-0.6c0-0.1,0.1-0.2,0.1-0.3
		c0-0.1,0.1-0.2,0.1-0.3c0,0,0-0.1,0-0.1c0,0,0-0.1,0-0.2c0-0.2,0.1-0.3,0.1-0.5c0,0,0,0,0-0.1c0,0,0-0.1,0-0.1c0-0.1,0-0.3,0.1-0.4
		c0,0,0-0.1,0-0.1c0-0.1,0-0.1,0-0.2c0,0,0,0,0-0.1c0,0,0,0,0-0.1c0-0.1,0-0.1,0-0.1c0,0,0,0,0,0c0,0,0,0,0-0.1
		c-1-1.8-2.4-5-3.8-8.1c-0.1-0.2-0.2-0.4-0.3-0.7c0,0,0-0.1-0.1-0.2c-0.2-0.4-0.3-0.8-0.5-1.2c-0.3-0.6-0.5-1.3-0.8-1.9
		c-0.1-0.4-0.3-0.8-0.5-1.2c-0.2-0.4-0.3-0.7-0.4-1c0-0.1-0.1-0.1-0.1-0.2c-0.1-0.2-0.2-0.5-0.2-0.7c-0.1-0.3-0.2-0.5-0.3-0.8
		c-0.1-0.2-0.1-0.3-0.2-0.5c0,0,0-0.1,0-0.1c0-0.1-0.1-0.2-0.1-0.3c0,0,0-0.1,0-0.1c0,0,0-0.1-0.1-0.2c0-0.1,0-0.1-0.1-0.2
		c0-0.1-0.1-0.2-0.1-0.3c-0.3-0.5-0.7-1-1.2-1.6c-0.1-0.1-0.2-0.2-0.3-0.3c-0.1-0.1-0.2-0.2-0.3-0.4l-0.3-0.3
		c-0.7-0.8-1.6-1.5-2.3-2.3h0l-0.3-0.3c0,0-0.1-0.1-0.1-0.1c-0.4-0.5-0.9-1-1.3-1.6c-0.2-0.2-0.4-0.5-0.6-0.8
		c-0.9-1.2-1.8-2.5-2.6-3.7c-0.3-0.4-0.6-0.8-0.8-1.2c-0.1-0.1-0.2-0.2-0.2-0.3v0c-0.3-0.5-0.6-0.8-0.8-1.1
		c-0.3-0.4-0.6-0.7-0.8-1.1c-0.2-0.3-0.4-0.6-0.6-0.9c-0.2-0.4-0.5-0.8-0.6-1.2c-0.1-0.2-0.2-0.4-0.3-0.5c0,0,0-0.1,0-0.1
		c0-0.1-0.1-0.1-0.1-0.2l-0.2-0.4c-0.1-0.2-0.1-0.4-0.2-0.6c0-0.1-0.1-0.3-0.1-0.4c0-0.1,0-0.2,0-0.3c0-0.2-0.1-0.5-0.1-0.7
		c-0.1-0.7-0.3-1.5-0.7-1.8c0,0-0.1-0.1-0.1-0.1c-0.1-0.1-0.2-0.1-0.2-0.2c-0.1,0-0.3-0.1-0.4-0.1c-0.2,0-0.4,0-0.6,0.1
		c-0.2,0.1-0.4,0.1-0.6,0.3c-0.2,0.1-0.3,0.2-0.5,0.3c-0.3,0.2-0.7,0.5-1,1c0,0.1-0.1,0.1-0.1,0.2c-0.1,0.2-0.2,0.4-0.3,0.6
		c0,0,0,0.1,0,0.1c0,0.1-0.1,0.2-0.1,0.3c0,0.1,0,0.1,0,0.2v0c0,0,0,0,0,0.1c0,0,0,0.1,0,0.1c0,0,0,0.1,0,0.1c0,0.1,0,0.2,0,0.3V65
		c0,0.1,0,0.2,0,0.3v0c0,0.1,0,0.2,0,0.4c0,0,0,0,0,0c0,0.1,0,0.2,0,0.3c0,0.1,0,0.2,0.1,0.4c0,0.1,0,0.2,0.1,0.3
		c0.1,0.4,0.2,0.9,0.3,1.3c0,0.2,0.1,0.3,0.1,0.5c0,0.1,0.1,0.3,0.2,0.5c0,0,0,0.1,0,0.2c0,0.1,0,0.2,0.1,0.2c0.3,1,0.8,2.1,1.3,3.3
		c0.1,0.2,0.1,0.3,0.2,0.5c0.2,0.5,0.5,1.1,0.8,1.7c0,0.1,0.1,0.2,0.1,0.2l0.2,0.4c0.1,0.2,0.2,0.5,0.3,0.7c0.2,0.5,0.5,0.9,0.7,1.3
		c0.2,0.5,0.5,0.9,0.8,1.3c0.1,0.2,0.3,0.4,0.4,0.6c0.1,0.2,0.3,0.4,0.4,0.6c0.8,1.3,1.7,2.5,2.6,3.5l0.1,0.1l0.2,0.2l-0.4,0.4
		c0,0-0.1,0.1-0.1,0.1c0,0-0.1,0.1-0.1,0.1c-0.1,0.1-0.2,0.3-0.4,0.6c0,0.1-0.1,0.2-0.1,0.3c0,0.1-0.1,0.2-0.1,0.3
		c0,0.1-0.1,0.2-0.1,0.2c0,0.1-0.1,0.2-0.1,0.3c-0.4,1-0.9,2.3-1.2,3.9c0,0.1,0,0.3-0.1,0.4c-0.1,0.4-0.1,0.7-0.2,1.1
		c-0.1,0.7-0.2,1.5-0.2,2.3s0,1.6,0,2.5c0,0.4,0,0.8,0.1,1.2c0,0.2,0.1,0.5,0.1,0.8c0.1,0.5,0.1,0.9,0.2,1.3
		c0.1,0.2,0.1,0.4,0.2,0.7c0,0.1,0,0.1,0,0.2c0,0,0,0,0,0.1c0,0.2,0.1,0.3,0.1,0.5c0,0.2,0.1,0.3,0.1,0.4c0.1,0.3,0.2,0.6,0.3,0.9
		c0,0.1,0,0.2,0,0.4c0,0.1-0.1,0.1-0.1,0.2c0,0,0,0,0,0c0,0,0,0,0,0c0,0-0.1,0.1-0.2,0.1c-0.1,0-0.2,0-0.3,0c-0.1,0-0.1-0.1-0.2-0.1
		c0,0-0.1,0-0.1-0.1c-0.1-0.1-0.1-0.1-0.1-0.2c0-0.1,0-0.1-0.1-0.2l2.4,12.3l8,6.3l4,3.1l4.7,3.7l6.2,4.8l0.5,0.4l4.4,4l6.7-6.7l7-7
		l0.2-0.2C288.9,123,288.8,122.9,288.7,122.8z"/>
	<path class="st2" d="M289.6,122.5l-0.6,0.6l-0.2,0.2c-4-3.8-8.8-8.1-12.8-11.9c-0.1-0.1-0.2-0.2-0.4-0.3c-1.9-1.8-3.6-3.4-5.1-4.7
		c-2.2-2.1-3.7-3.5-4-3.8c0,0,0,0,0,0c0,0,0,0,0,0c0,0.1,0,0.2-0.1,0.3c-0.1,0.3-0.1,0.6-0.2,0.9c-0.2,0.8-0.5,1.6-1,2.5
		c-0.1,0.3-0.3,0.5-0.5,0.8c0,0,0,0,0,0c-0.1,0.2-0.2,0.3-0.3,0.5c-0.7,1-1.5,2-2.6,2.9c0,0-0.1,0-0.1,0c-0.1,0.1-0.2,0.1-0.2,0.1
		c-0.1,0-0.1,0-0.2,0c0,0-0.1,0-0.2-0.1c0,0,0,0-0.1,0v0c0,0,0,0,0,0c0,0-0.1-0.1-0.1-0.1c0,0,0,0,0,0c0-0.1,0-0.1,0-0.2
		c0,0,0,0,0,0c0,0,0,0,0,0c0-0.1,0-0.2,0.1-0.3c0,0,0.1-0.1,0.1-0.1c0.4-0.3,0.7-0.6,1-0.9c0.1-0.1,0.2-0.2,0.3-0.3
		c0.2-0.2,0.4-0.5,0.6-0.8c0.1-0.2,0.3-0.4,0.4-0.6c0.1-0.2,0.2-0.4,0.3-0.5c0.1-0.2,0.2-0.3,0.3-0.5c0,0,0-0.1,0-0.1
		c0.1-0.2,0.2-0.4,0.3-0.5c0.2-0.4,0.3-0.8,0.5-1.2c0.1-0.2,0.2-0.4,0.2-0.6c0-0.1,0.1-0.2,0.1-0.3c0-0.2,0.1-0.4,0.1-0.6
		c0-0.2,0.1-0.3,0.1-0.5c0-0.1,0-0.1,0-0.2c0-0.1,0-0.3,0.1-0.4c0-0.3,0.1-0.5,0.1-0.5c0,0,0,0,0,0c0,0,0,0,0-0.1
		c-1-1.8-2.4-5-3.8-8.1c-0.1-0.2-0.2-0.4-0.3-0.7c0,0,0-0.1-0.1-0.2c-0.2-0.4-0.3-0.8-0.5-1.2c-0.3-0.6-0.5-1.3-0.8-1.9
		c-0.1-0.4-0.3-0.8-0.5-1.2c-0.2-0.4-0.3-0.7-0.4-1c0-0.1-0.1-0.2-0.1-0.2c-0.1-0.2-0.2-0.5-0.3-0.7c-0.1-0.3-0.2-0.5-0.3-0.8
		c-0.1-0.2-0.1-0.3-0.2-0.5c0,0,0-0.1,0-0.1c0-0.2-0.1-0.3-0.1-0.4c0,0,0-0.1-0.1-0.2c0-0.1,0-0.1-0.1-0.2c0-0.1-0.1-0.2-0.1-0.3
		c-0.3-0.5-0.7-1-1.2-1.6c-0.1-0.1-0.2-0.2-0.3-0.3c-0.1-0.1-0.2-0.2-0.3-0.4c-0.1-0.1-0.2-0.2-0.3-0.3c-0.7-0.8-1.6-1.5-2.3-2.3h0
		c-0.1-0.1-0.3-0.3-0.4-0.4c-0.4-0.5-0.9-1-1.3-1.6c-0.2-0.2-0.4-0.5-0.6-0.8c-0.9-1.2-1.8-2.5-2.6-3.7c-0.3-0.4-0.6-0.8-0.8-1.2
		c-0.1-0.1-0.2-0.2-0.2-0.3c-0.3-0.5-0.6-0.8-0.8-1.1c-0.3-0.4-0.6-0.7-0.8-1.1c-0.2-0.3-0.4-0.6-0.6-0.9c-0.2-0.4-0.5-0.8-0.6-1.2
		c-0.1-0.2-0.2-0.4-0.3-0.5c-0.1-0.1-0.1-0.2-0.1-0.3l-0.2-0.4c-0.1-0.2-0.1-0.4-0.2-0.6c0-0.1-0.1-0.3-0.1-0.4c0-0.1,0-0.2,0-0.3
		c0-0.2-0.1-0.5-0.1-0.7c-0.1-0.7-0.3-1.5-0.7-1.8c0,0-0.1-0.1-0.1-0.1c-0.1-0.1-0.2-0.1-0.2-0.1c-0.1,0-0.3-0.1-0.4-0.1
		c-0.2,0-0.4,0-0.6,0.1c-0.2,0.1-0.4,0.1-0.6,0.3c-0.2,0.1-0.3,0.2-0.5,0.3c-0.3,0.2-0.7,0.5-1,1c-0.2,0.2-0.3,0.5-0.4,0.9
		c0,0.1-0.1,0.2-0.1,0.3c0,0.1,0,0.1,0,0.2c0,0,0,0,0,0.1c0,0,0,0.1,0,0.1c0,0.1,0,0.3,0,0.4c0,0.1,0,0.3,0,0.4c0,0.1,0,0.2,0,0.3v0
		c0,0.4,0.1,0.8,0.2,1.3c0.1,0.4,0.2,0.9,0.3,1.3c0,0.2,0.1,0.3,0.1,0.5c0.1,0.3,0.2,0.6,0.3,0.9c0.3,1,0.8,2.1,1.3,3.3
		c0.1,0.2,0.1,0.3,0.2,0.5c0.2,0.5,0.5,1.1,0.8,1.7c0.1,0.2,0.2,0.4,0.3,0.7c0.1,0.2,0.2,0.5,0.3,0.7c0.2,0.5,0.5,0.9,0.7,1.3
		c0.2,0.5,0.5,0.9,0.8,1.3c0.3,0.4,0.5,0.9,0.8,1.3c0.8,1.3,1.7,2.5,2.6,3.5l0.1,0.1l0.2,0.2l-0.3,0.4c0,0-0.1,0.1-0.1,0.1
		c0,0-0.1,0.1-0.1,0.1c-0.1,0.1-0.2,0.3-0.4,0.6c0,0.1-0.1,0.2-0.1,0.3c0,0.1-0.1,0.2-0.1,0.3c-0.1,0.2-0.2,0.3-0.2,0.5
		c-0.4,1-0.9,2.3-1.2,3.9c-0.1,0.5-0.2,1-0.3,1.5c-0.1,0.7-0.2,1.5-0.2,2.3s0,1.6,0,2.5c0,0.4,0,0.8,0.1,1.2c0,0.2,0.1,0.5,0.1,0.8
		c0.1,0.5,0.1,0.9,0.2,1.3c0.1,0.2,0.1,0.4,0.2,0.7c0,0.1,0,0.1,0,0.2c0,0.2,0.1,0.4,0.1,0.5c0.1,0.5,0.3,0.9,0.4,1.3
		c0,0.1,0,0.2,0,0.4c0,0,0,0.1-0.1,0.1c0,0,0,0,0,0.1c0,0,0,0,0,0c0,0,0,0,0,0c0,0-0.1,0.1-0.2,0.1c-0.1,0-0.2,0-0.3,0
		c-0.1,0-0.1-0.1-0.2-0.1c0,0-0.1,0-0.1-0.1c-0.1-0.1-0.1-0.1-0.1-0.2c0-0.1,0-0.1-0.1-0.2c-0.1-0.4-0.3-0.8-0.4-1.1
		c-2.2-7.6,0.4-15.2,2-17.4c-3-3.6-5.6-8.6-7.1-12.7l-0.7-2.2c-0.5-1.5-0.7-2.8-0.8-3.8c0-0.1,0-0.2,0-0.3c0-1.8,0.7-3.4,2.1-4.4
		c1-0.8,2.2-1,3.1-0.7c0.1,0,0.1,0,0.2,0.1c1.2,0.5,1.5,2.3,1.8,3.6c0.1,0.4,0.1,0.9,0.2,1l0.2,0.4c0.4,0.9,1.2,2.5,2.3,3.8
		c0.5,0.6,1.2,1.6,2,2.8c1.5,2.2,3.3,4.8,4.8,6.2c2.5,2.4,4.8,4.6,5.2,6.2c0,0.2,0.3,0.9,0.6,1.7c1.5,4,5.3,13.1,6.9,15.6
		c0.1,0.1,1.6,1.6,4,3.8C275.7,109.5,283.5,116.8,289.6,122.5z"/>
	<path class="st0" d="M129.4,162.5c0,0.1,0.1,0.2,0.2,0.3c0.1,0.1,0.1,0.1,0.2,0.1c0.1,0,0.1,0.1,0.2,0.1L129.4,162.5z M171.5,165.2
		c-0.2-0.5-0.9-0.8-1.7-1c-0.4-0.1-0.8-0.1-1.1-0.2c-0.6-0.1-1-0.2-1.3-0.3l-0.3-0.2c-0.9-0.5-2.7-1.3-4-2.5
		c-0.5-0.4-1.5-1.1-2.7-1.9h0c-0.8-0.5-1.6-1.1-2.4-1.7c-1.5-1.1-3-2.2-4-3.3c-0.1-0.1-0.2-0.2-0.3-0.3l-7.5,7.5
		c1-0.4,1.8-0.8,2.1-1.2l0.4-0.3l0.4,0.3c1.1,0.9,2.3,1.8,3.6,2.6c0.8,0.5,1.7,1,2.5,1.5c3.7,2.1,7.7,3.6,10.4,4.2
		c0.8,0.2,1.5,0.3,2.1,0.3c0.9,0,1.6-0.2,2.2-0.5c0,0,0,0,0,0c0.6-0.4,1.1-0.8,1.3-1.1c0.1-0.1,0.2-0.3,0.3-0.5c0,0,0,0,0,0
		C171.5,166.1,171.6,165.5,171.5,165.2z M126.9,138.3c-0.9-0.9-1.8-2-2.9-3.1c-1.3-1.4-3.7-4-6.5-7.1c0,0,0,0.1-0.1,0.1
		c2.8,3.1,5.3,5.7,6.5,7.1v0C125.1,136.4,126,137.4,126.9,138.3z"/>
	<path class="st2" d="M118.8,127.9c2.9,3.1,4.7,5.2,6,6.5v0c3.3,3.5,5.8,6,6.3,6.4c3,1.9,16,7.2,17.3,7.5c1.5,0.3,3.6,2.4,5.9,4.8
		c0.1,0.1,0.2,0.2,0.3,0.3c1.4,1.5,4.1,3.3,6.3,4.8c0.1,0,0.1,0.1,0.2,0.1h0c1.1,0.8,2,1.4,2.6,1.9c1.3,1.1,2.9,1.9,3.8,2.3l0.4,0.2
		c0.1,0.1,0.6,0.1,1,0.2c1.4,0.2,3.3,0.6,3.7,1.9c0,0.2,0.1,0.4,0.1,0.5v0c0.1,0.8-0.2,1.7-0.8,2.6c-0.9,1.2-2.2,1.9-3.8,2.1
		c-0.2,0-0.4,0-0.6,0c-1,0-2.4-0.3-4-0.8l-2.2-0.7c-2.2-0.8-4.7-1.9-7.1-3.3c-2-1.1-4-2.4-5.7-3.8c-0.8,0.6-2.3,1.3-4.3,1.8
		c-3.7,1.1-9.1,1.7-14.3-0.2c-0.1,0-0.1,0-0.2-0.1c-0.1,0-0.1-0.1-0.2-0.1c-0.1-0.1-0.1-0.2-0.2-0.3c0-0.1,0-0.2,0-0.3
		c0.1-0.3,0.4-0.4,0.7-0.3c6.1,2.3,12.5,0.9,15.9-0.4c0,0,0,0,0,0c1-0.4,1.8-0.8,2.1-1.2l0.4-0.3l0.4,0.3c1.7,1.5,3.9,2.9,6.1,4.2
		c4.9,2.7,10.1,4.5,12.4,4.5c0.9,0,1.6-0.2,2.2-0.5c0,0,0,0,0,0c0.6-0.3,1-0.8,1.3-1.1c0.1-0.2,0.2-0.3,0.3-0.5c0,0,0,0,0,0
		c0.3-0.6,0.4-1.2,0.3-1.6c-0.2-0.7-1.8-1-2.8-1.2c-0.6-0.1-1-0.2-1.3-0.3l-0.4-0.2c-0.9-0.5-2.7-1.3-4.1-2.5
		c-0.5-0.4-1.5-1.1-2.7-1.9h0c-2.2-1.5-4.9-3.3-6.4-4.9c-0.1-0.1-0.2-0.2-0.3-0.3c-2-2.1-4.1-4.3-5.3-4.5
		c-1.4-0.3-12.6-4.9-16.8-7.1c0,0-0.1,0-0.1,0c-0.1,0-5.3,0.4-8.5,4.5c-0.2,0.2-0.5,0.3-0.8,0.1c0,0,0,0-0.1,0
		c-0.2-0.2-0.2-0.5,0-0.7c2.5-3.2,6.1-4.3,8-4.7c-0.1-0.1-0.2-0.1-0.3-0.2c-0.1-0.1-0.2-0.2-0.4-0.3c-0.3-0.3-0.6-0.6-1-1
		c-0.1-0.1-0.1-0.1-0.2-0.2c-0.3-0.3-0.6-0.6-0.9-0.9c-0.9-1-2-2.1-3.3-3.4v0c-1.2-1.3-3.2-3.4-6-6.5"/>
	<line class="st4" x1="159.2" y1="186.7" x2="159.2" y2="186.7"/>
	<g>
		<path class="st4" d="M217.7,121.1l-20.8,20.8c-1,1-2.7,1.2-4,0.4h0c-3.9-2.4-7.1-5.7-9.5-9.5l0,0c-0.8-1.3-0.6-2.9,0.4-4
			l20.8-20.8c1.2-1.2,3.3-1.2,4.6,0.1l8.5,8.5C218.9,117.8,218.9,119.8,217.7,121.1z"/>
		
			<ellipse transform="matrix(0.7071 -0.7071 0.7071 0.7071 -29.6999 178.1995)" class="st4" cx="200.3" cy="125" rx="5.5" ry="4.4"/>
		<circle class="st4" cx="200.3" cy="125" r="2.7"/>
		<line class="st4" x1="188.3" y1="124.2" x2="201" y2="136.9"/>
		<path class="st4" d="M207.1,113l-2.3,2.3c-0.5,0.5-1.3,0.5-1.8,0l-0.2-0.2c-0.5-0.5-0.5-1.3,0-1.8l2.3-2.3c0.5-0.5,1.3-0.5,1.8,0
			l0.2,0.2C207.6,111.7,207.6,112.5,207.1,113z"/>
		<path class="st4" d="M211.2,118.9L211.2,118.9c0.7,0.7,0.9,1.8,0.5,2.7l-0.6,1.3c-0.4,0.9-1.5,1.1-2.2,0.4l0,0
			c-0.1-0.1-0.2-0.2-0.2-0.3c-0.5-0.7-0.6-1.6-0.2-2.4l0.6-1.3c0.3-0.8,1.3-1,2-0.6C211,118.8,211.1,118.8,211.2,118.9z"/>
	</g>
</g>
<path class="st1" d="M289.6,122.5l-0.6,0.6l-0.2,0.2l-7,7l-6.7,6.7l-2.8,2.8l-0.8,0.8l-2.5,2.4c-1.1,1.1-2.2,2.3-3.2,3.4
	c0,0-0.1,0.1-0.1,0.1c-0.2,0.3-0.4,0.5-0.7,0.8c-11.9,13.9-17.8,31.1-17.8,48.3c0,19.1,7.3,38.1,21.8,52.7
	c29.1,29.1,76.2,29.1,105.3,0l74.5-74.5"/>
<g>
	<path class="st6" d="M278.1,274.8L242,239.3c-1.8-1.8-2.1-4.6-0.8-6.8l0,0c4.1-6.7,9.7-12.3,16.3-16.5l0,0c2.2-1.4,5-1.1,6.8,0.6
		l36.1,35.5c2.2,2.1,2.1,5.6-0.1,7.9L286,274.7C283.8,276.9,280.3,277,278.1,274.8z"/>
	<ellipse transform="matrix(0.7015 -0.7127 0.7127 0.7015 -93.6362 266.3922)" class="st4" cx="271.2" cy="245" rx="7.6" ry="9.5"/>
	<circle class="st4" cx="271.2" cy="245" r="4.6"/>
	<line class="st4" x1="272.3" y1="224.4" x2="250.6" y2="246.4"/>
	<g>
		<path class="st0" d="M291.4,273.3c-0.4,0-0.8-0.2-0.9-0.6l-4.3-9.5l-10.3,1.2c0,0-0.1,0-0.1,0c-0.4,0-0.7-0.2-0.9-0.5
			c-0.2-0.3-0.2-0.8,0.1-1.1l6.1-8.4l-6.2-8.3c-0.2-0.3-0.3-0.7-0.1-1.1c0.2-0.3,0.5-0.5,0.9-0.5c0,0,0.1,0,0.1,0l10.3,1l4.1-9.5
			c0.2-0.4,0.5-0.6,0.9-0.6c0,0,0,0,0,0c0.4,0,0.8,0.2,0.9,0.6l4.3,9.5l10.3-1.2c0,0,0.1,0,0.1,0c0.4,0,0.7,0.2,0.9,0.5
			c0.2,0.3,0.2,0.8-0.1,1.1l-6.1,8.4l6.2,8.3c0.2,0.3,0.3,0.7,0.1,1.1c-0.2,0.3-0.5,0.5-0.9,0.5c0,0-0.1,0-0.1,0l-10.3-1l-4.1,9.5
			C292.1,273.1,291.8,273.3,291.4,273.3C291.4,273.3,291.4,273.3,291.4,273.3z"/>
		<path d="M291.1,236.5l4.6,10.1l11-1.3l-6.5,9l6.6,8.9l-11.1-1.1l-4.4,10.2l-4.6-10.1l-11,1.3l6.5-9l-6.6-8.9l11.1,1.1L291.1,236.5
			 M291.1,234.5C291.1,234.5,291.1,234.5,291.1,234.5c-0.8,0-1.5,0.5-1.8,1.2l-3.8,8.9l-9.6-1c-0.1,0-0.1,0-0.2,0
			c-0.7,0-1.4,0.4-1.7,1c-0.4,0.7-0.3,1.5,0.1,2.2l5.8,7.7l-5.6,7.8c-0.5,0.6-0.5,1.5-0.1,2.2c0.4,0.6,1,1,1.7,1c0.1,0,0.2,0,0.2,0
			l9.6-1.1l4,8.8c0.3,0.7,1,1.2,1.8,1.2c0,0,0,0,0,0c0.8,0,1.5-0.5,1.8-1.2l3.8-8.9l9.6,1c0.1,0,0.1,0,0.2,0c0.7,0,1.4-0.4,1.7-1
			c0.4-0.7,0.3-1.5-0.1-2.2l-5.8-7.7l5.6-7.8c0.5-0.6,0.5-1.5,0.1-2.2c-0.4-0.6-1-1-1.7-1c-0.1,0-0.2,0-0.2,0l-9.6,1.1l-4-8.8
			C292.6,234.9,291.9,234.5,291.1,234.5L291.1,234.5z"/>
	</g>
	<path class="st4" d="M292.5,257.2l-5.3-5.2c-0.5-0.5-0.5-1.3,0-1.8l1.7-1.7c0.5-0.5,1.3-0.5,1.8,0l5.3,5.2c0.5,0.5,0.5,1.3,0,1.8
		l-1.7,1.7C293.8,257.7,293,257.7,292.5,257.2z"/>
</g>
<g>
	<path d="M958,1.9v55.2L697.2,318H2v-71.6l117-117L246.5,1.9H958 M960-0.1H245.6L117.5,128L0,245.6V320h698L960,58V-0.1L960-0.1z"/>
</g>
</svg>
